<?xml version="1.0" encoding="UTF-8"?>
<svg id="Capa_2" data-name="Capa 2" xmlns="http://www.w3.org/2000/svg" version="1.1" viewBox="0 0 403 455.8">
  <defs>
    <style>
      .cls-1 {
        fill: #45be76;
      }

      .cls-1, .cls-2, .cls-3 {
        stroke-width: 0px;
      }

      .cls-2 {
        fill: #3073b7;
      }

      .cls-3 {
        fill: #d0342c;
      }
    </style>
  </defs>
  <g id="_4f8c239d-5378-44d5-827a-e6341b1e3de9_1" data-name="4f8c239d-5378-44d5-827a-e6341b1e3de9@1">
    <g>
      <path class="cls-1" d="M14.9,106.2c25.8-14.9,51.6-29.7,77.3-44.6,3-1.7,6.6-1.7,9.6,0,25.7,14.9,51.5,29.7,77.2,44.6,3.2,1.8,3.2,6.4,0,8.3-25.7,14.9-51.5,29.7-77.2,44.6-3,1.7-6.6,1.7-9.6,0-25.8-14.9-51.6-29.7-77.3-44.6-3.2-1.8-3.2-6.4,0-8.3Z"/>
      <path class="cls-1" d="M119.5,45.9c25.8-14.9,51.6-29.7,77.3-44.6,3-1.7,6.6-1.7,9.6,0,25.7,14.9,51.5,29.7,77.2,44.6,3.2,1.8,3.2,6.4,0,8.3-25.7,14.9-51.5,29.7-77.2,44.6-3,1.7-6.6,1.7-9.6,0-25.8-14.9-51.6-29.7-77.3-44.6-3.2-1.8-3.2-6.4,0-8.3Z"/>
      <path class="cls-1" d="M119.4,166.6c25.8-14.9,51.6-29.7,77.3-44.6,3-1.7,6.6-1.7,9.6,0,25.7,14.9,51.5,29.7,77.2,44.6,3.2,1.8,3.2,6.4,0,8.3-25.7,14.9-51.5,29.7-77.2,44.6-3,1.7-6.6,1.7-9.6,0-25.8-14.9-51.6-29.7-77.3-44.6-3.2-1.8-3.2-6.4,0-8.3Z"/>
      <path class="cls-1" d="M224,106.2c25.8-14.9,51.6-29.7,77.3-44.6,3-1.7,6.6-1.7,9.6,0,25.7,14.9,51.5,29.7,77.2,44.6,3.2,1.8,3.2,6.4,0,8.3-25.7,14.9-51.5,29.7-77.2,44.6-3,1.7-6.6,1.7-9.6,0-25.8-14.9-51.6-29.7-77.3-44.6-3.2-1.8-3.2-6.4,0-8.3Z"/>
    </g>
    <g>
      <path class="cls-2" d="M209.2,451c0-29.8,0-59.5,0-89.3,0-3.4,1.8-6.6,4.8-8.3,25.8-14.8,51.4-29.8,77.2-44.6,3.2-1.8,7.2.5,7.2,4.1,0,29.7,0,59.5,0,89.2,0,3.4-1.8,6.6-4.8,8.3-25.8,14.9-51.5,29.8-77.3,44.7-3.2,1.8-7.2-.5-7.2-4.1Z"/>
      <path class="cls-2" d="M209.2,330.3c0-29.8,0-59.5,0-89.3,0-3.4,1.8-6.6,4.8-8.3,25.8-14.8,51.4-29.8,77.2-44.6,3.2-1.8,7.2.5,7.2,4.1,0,29.7,0,59.5,0,89.2,0,3.4-1.8,6.6-4.8,8.3-25.8,14.9-51.5,29.8-77.3,44.7-3.2,1.8-7.2-.5-7.2-4.1Z"/>
      <path class="cls-2" d="M313.7,390.6c0-29.8,0-59.5,0-89.3,0-3.4,1.8-6.6,4.8-8.3,25.8-14.8,51.4-29.8,77.2-44.6,3.2-1.8,7.2.5,7.2,4.1,0,29.7,0,59.5,0,89.2,0,3.4-1.8,6.6-4.8,8.3-25.8,14.9-51.5,29.8-77.3,44.7-3.2,1.8-7.2-.5-7.2-4.1Z"/>
      <path class="cls-2" d="M313.7,269.9c0-29.8,0-59.5,0-89.3,0-3.4,1.8-6.6,4.8-8.3,25.8-14.8,51.4-29.8,77.2-44.6,3.2-1.8,7.2.5,7.2,4.1,0,29.7,0,59.5,0,89.2,0,3.4-1.8,6.6-4.8,8.3-25.8,14.9-51.5,29.8-77.3,44.7-3.2,1.8-7.2-.5-7.2-4.1Z"/>
    </g>
    <g>
      <path class="cls-3" d="M193.8,451c0-29.8,0-59.5,0-89.3,0-3.4-1.8-6.6-4.8-8.3-25.8-14.8-51.4-29.8-77.2-44.6-3.2-1.8-7.2.5-7.2,4.1,0,29.7,0,59.5,0,89.2,0,3.4,1.8,6.6,4.8,8.3,25.8,14.9,51.5,29.8,77.3,44.7,3.2,1.8,7.2-.5,7.2-4.1Z"/>
      <path class="cls-3" d="M193.8,330.3c0-29.8,0-59.5,0-89.3,0-3.4-1.8-6.6-4.8-8.3-25.8-14.8-51.4-29.8-77.2-44.6-3.2-1.8-7.2.5-7.2,4.1,0,29.7,0,59.5,0,89.2,0,3.4,1.8,6.6,4.8,8.3,25.8,14.9,51.5,29.8,77.3,44.7,3.2,1.8,7.2-.5,7.2-4.1Z"/>
      <path class="cls-3" d="M89.3,390.6c0-29.8,0-59.5,0-89.3,0-3.4-1.8-6.6-4.8-8.3-25.8-14.8-51.4-29.8-77.2-44.6-3.2-1.8-7.2.5-7.2,4.1,0,29.7,0,59.5,0,89.2,0,3.4,1.8,6.6,4.8,8.3,25.8,14.9,51.5,29.8,77.3,44.7,3.2,1.8,7.2-.5,7.2-4.1Z"/>
      <path class="cls-3" d="M89.3,269.9c0-29.8,0-59.5,0-89.3,0-3.4-1.8-6.6-4.8-8.3-25.8-14.8-51.4-29.8-77.2-44.6-3.2-1.8-7.2.5-7.2,4.1,0,29.7,0,59.5,0,89.2,0,3.4,1.8,6.6,4.8,8.3,25.8,14.9,51.5,29.8,77.3,44.7,3.2,1.8,7.2-.5,7.2-4.1Z"/>
    </g>
  </g>
</svg>