<svg xmlns="http://www.w3.org/2000/svg" width="1100" height="1100" viewBox="0 0 1100 1100" version="1.1"><path d="M 456.808 121.454 C 405.277 151.179, 363.427 175.791, 363.808 176.148 C 364.189 176.504, 406.347 200.949, 457.494 230.469 C 547.605 282.480, 550.565 284.098, 552.994 282.683 C 554.372 281.880, 596.225 257.727, 646 229.009 C 695.775 200.292, 736.809 176.504, 737.186 176.148 C 737.563 175.791, 705.885 157.050, 666.790 134.500 C 627.695 111.950, 585.537 87.629, 573.104 80.454 L 550.500 67.408 456.808 121.454 M 238 247.563 C 187.125 276.972, 145.500 301.469, 145.500 302 C 145.500 302.531, 187.330 327.092, 238.456 356.580 L 331.412 410.194 335.098 408.347 C 341.675 405.052, 518.947 302.516, 518.960 302 C 518.978 301.265, 334.211 194.851, 332.204 194.440 C 331.267 194.248, 288.875 218.153, 238 247.563 M 675.263 247.732 C 623.983 277.304, 582.033 301.725, 582.040 302 C 582.065 302.897, 767.340 409.381, 768.980 409.441 C 770.622 409.502, 956 303.004, 956 302 C 956 301.382, 771.441 194.663, 769.628 194.232 C 769.008 194.085, 726.543 218.160, 675.263 247.732 M 457.056 373.564 C 406.212 402.947, 364.275 427.328, 363.862 427.744 C 363.339 428.272, 549.079 536.500, 550.508 536.500 C 550.584 536.500, 592.774 512.200, 644.264 482.500 C 713.766 442.410, 737.575 428.219, 736.691 427.409 C 734.980 425.843, 551.087 319.986, 550.222 320.070 C 549.825 320.108, 507.900 344.180, 457.056 373.564 M 129.246 437.499 L 129.500 546.121 162 564.882 C 179.875 575.200, 221.839 599.433, 255.254 618.731 L 316.009 653.820 315.754 545.288 L 315.500 436.757 223.500 383.607 C 172.900 354.374, 130.935 330.101, 130.246 329.667 C 129.242 329.034, 129.042 350.592, 129.246 437.499 M 879.213 382.466 C 828.456 411.808, 786.268 436.362, 785.463 437.030 C 784.195 438.083, 784 452.586, 784 545.622 C 784 619.867, 784.324 653, 785.049 653 C 785.626 653, 827.926 628.840, 879.049 599.311 L 972 545.622 972 437.311 C 972 377.740, 971.888 329.026, 971.750 329.058 C 971.612 329.091, 929.971 353.124, 879.213 382.466 M 347 563.334 L 347 671.709 440.250 725.514 C 491.538 755.106, 533.837 779.498, 534.250 779.718 C 534.663 779.938, 534.996 731.379, 534.992 671.809 L 534.983 563.500 445.821 512 C 396.782 483.675, 354.485 459.253, 351.829 457.730 L 347 454.960 347 563.334 M 658.750 509.757 L 566 563.401 566 671.759 C 566 731.357, 566.337 779.924, 566.750 779.686 C 661.788 724.981, 750.931 673.324, 752.250 672.192 C 753.896 670.779, 754 664.339, 754 563.345 C 754 478.106, 753.743 456.012, 752.750 456.056 C 752.063 456.088, 709.763 480.253, 658.750 509.757 M 129.031 690.159 L 129.063 798.500 219.159 850.500 C 268.712 879.100, 310.773 903.298, 312.628 904.274 L 316 906.048 315.963 797.774 L 315.926 689.500 228.356 639 C 180.192 611.225, 138.134 586.996, 134.893 585.159 L 129 581.818 129.031 690.159 M 878 635.920 L 784.500 689.899 784.246 797.949 C 784.106 857.377, 784.282 906, 784.638 906 C 785.532 906, 969.197 799.974, 970.755 798.559 C 971.749 797.656, 971.956 775.066, 971.755 689.680 L 971.500 581.941 878 635.920 M 347.246 816.208 L 347.500 924.491 441.250 978.645 L 535 1032.799 535 924.507 L 535 816.215 443.250 763.252 C 392.788 734.122, 350.485 709.756, 349.246 709.107 L 346.991 707.925 347.246 816.208 M 659.500 761.982 L 566.500 815.800 566.246 923.900 C 566.106 983.355, 566.331 1031.980, 566.746 1031.956 C 567.160 1031.932, 609.350 1007.714, 660.500 978.139 L 753.500 924.367 753.754 816.184 C 753.894 756.683, 753.669 708.037, 753.254 708.082 C 752.840 708.127, 710.650 732.382, 659.500 761.982" stroke="none" fill="#732bf3" fill-rule="evenodd"/></svg>