<?xml version="1.0" encoding="UTF-8" standalone="no"?>
<!DOCTYPE svg PUBLIC "-//W3C//DTD SVG 1.1//EN" "http://www.w3.org/Graphics/SVG/1.1/DTD/svg11.dtd">
<!-- Created with Vectornator (http://vectornator.io/) -->
<svg height="100%" stroke-miterlimit="10" style="fill-rule:nonzero;clip-rule:evenodd;stroke-linecap:round;stroke-linejoin:round;" version="1.1" viewBox="0 0 515.38 80.67" width="100%" xml:space="preserve" xmlns="http://www.w3.org/2000/svg" xmlns:xlink="http://www.w3.org/1999/xlink">
<defs/>
<clipPath id="ArtboardFrame">
<rect height="80.67" width="515.38" x="0" y="0"/>
</clipPath>
<g clip-path="url(#ArtboardFrame)" id="Untitled">
<g opacity="1">
<g opacity="1">
<path d="M0.176265 0.0705061L79.2348 0.0705061L79.2348 0.0705061L79.2348 80.7405L79.2348 80.7405L0.176265 80.7405L0.176265 80.7405L0.176265 0.0705061L0.176265 0.0705061Z" fill="#ffffff" fill-opacity="0" fill-rule="nonzero" opacity="1" stroke="none"/>
<path d="M79.2348 28.1669L79.2348 0.127643L33.6366 0.127643C21.4322 0.127643 11.421 10.1892 11.181 22.5814L11.1747 22.5814L11.1747 35.282L16.6507 35.282L16.6507 22.5814L16.657 22.5814C16.8969 13.2713 24.4551 5.71306 33.6366 5.71306L73.7546 5.71306L73.7546 22.5814L39.8482 22.5814C36.5929 22.5814 33.5933 24.3613 33.5933 28.1669L79.2348 28.1669ZM0.176265 52.6442L0.176265 80.6844L45.7702 80.6844C57.9746 80.6844 67.9859 70.6229 68.2258 58.2307L68.2321 58.2307L68.2321 45.529L62.7562 45.529L62.7562 58.2296L62.7467 58.2296C62.511 67.5397 54.9518 75.1033 45.7702 75.1033L5.65223 75.1033L5.65223 58.2296L39.5586 58.2296C42.814 58.2296 45.8136 56.4497 45.8136 52.6442L0.176265 52.6442ZM11.1282 63.8161L45.1498 63.8161C49.999 63.8161 51.7398 60.7889 51.7398 56.122L51.7398 33.8989L79.2348 33.8989L79.2348 58.7319C79.2348 69.1331 72.35 77.971 62.9993 80.7405C69.2479 75.6607 73.7588 67.9289 73.7588 58.7319L73.7588 39.4843L57.2157 39.4843L57.2157 56.122C57.2157 63.6684 52.9584 69.5125 45.1498 69.5125L11.1282 69.5125L11.1282 63.8161ZM68.2786 16.996L34.2571 16.996C29.4078 16.996 27.6671 20.0232 27.6671 24.689L27.6671 46.9132L0.176265 46.9132L0.176265 22.0791C0.176265 11.679 7.06112 2.84111 16.4118 0.0705061C10.1632 5.15032 5.65223 12.8821 5.65223 22.0791L5.65223 41.3267L22.1911 41.3267L22.1911 24.689C22.1911 17.1426 26.4484 11.2985 34.2571 11.2985L68.2786 11.2985L68.2786 16.996Z" fill="#7628f8" fill-rule="evenodd" opacity="1" stroke="none"/>
</g>
<path d="M127.874 44.2979L127.874 44.2979C127.874 46.4418 127.537 48.3778 126.862 50.1057C126.172 51.8337 125.192 53.2977 123.921 54.4977C122.666 55.7136 121.137 56.6496 119.333 57.3056C117.529 57.9616 115.513 58.2896 113.286 58.2896L113.286 58.2896C109.725 58.2896 106.548 57.7056 103.756 56.5376C100.98 55.3857 98.6897 54.0657 96.8858 52.5777L96.8858 52.5777L102.227 47.1298C103.639 48.4418 105.223 49.4498 106.98 50.1537L106.98 50.1537C108.047 50.5857 109.05 50.8657 109.992 50.9937C110.948 51.1217 111.725 51.1857 112.321 51.1857L112.321 51.1857C113.435 51.1857 114.454 51.0497 115.38 50.7777C116.29 50.4897 117.09 50.1057 117.78 49.6258L117.78 49.6258C119.239 48.5218 119.968 47.0738 119.968 45.2818L119.968 45.2818C119.968 44.1939 119.584 43.2099 118.815 42.3299L118.815 42.3299C118.219 41.6419 117.443 41.0739 116.486 40.6259L116.486 40.6259C115.717 40.1939 114.909 39.8419 114.062 39.5699C113.199 39.3139 112.423 39.0739 111.733 38.85L111.733 38.85C111.529 38.77 111.341 38.722 111.168 38.706C110.996 38.674 110.839 38.618 110.697 38.538L110.697 38.538C110.619 38.538 110.494 38.49 110.321 38.394L110.321 38.394C109.427 38.138 108.133 37.682 106.439 37.026C104.745 36.37 103.058 35.474 101.38 34.338L101.38 34.338C97.474 31.6661 95.5211 28.3861 95.5211 24.4982L95.5211 24.4982C95.5211 21.9223 95.9603 19.7463 96.8387 17.9703C97.7171 16.1944 98.8701 14.7464 100.298 13.6264C101.709 12.5224 103.286 11.7304 105.027 11.2505C106.752 10.7705 108.454 10.5305 110.133 10.5305L110.133 10.5305C113.223 10.5305 115.819 10.8985 117.921 11.6344C120.023 12.3704 121.694 13.1144 122.933 13.8664L122.933 13.8664C123.576 14.2664 124.125 14.6504 124.58 15.0184C125.019 15.3864 125.411 15.7224 125.756 16.0264L125.756 16.0264L120.297 21.6663C119.137 20.4823 117.952 19.5863 116.745 18.9783L116.745 18.9783C114.956 18.1143 113.074 17.6823 111.097 17.6823L111.097 17.6823C110.235 17.6823 109.38 17.7863 108.533 17.9943C107.67 18.2183 106.917 18.5063 106.274 18.8583L106.274 18.8583C104.392 20.0423 103.45 21.5943 103.45 23.5142L103.45 23.5142C103.45 24.6982 103.835 25.7062 104.603 26.5382L104.603 26.5382C105.152 27.1942 105.921 27.7782 106.909 28.2901L106.909 28.2901C107.725 28.7381 108.588 29.0901 109.497 29.3461C110.392 29.6021 111.223 29.8421 111.992 30.0661L111.992 30.0661L112.768 30.2581C112.988 30.3541 113.396 30.4901 113.992 30.6661C114.588 30.8421 115.294 31.1061 116.109 31.4581C116.925 31.7941 117.811 32.2021 118.768 32.6821C119.741 33.1781 120.697 33.754 121.639 34.41L121.639 34.41C125.795 37.194 127.874 40.4899 127.874 44.2979ZM153.874 24.6182L161.591 24.6182L161.591 57.4256L153.874 57.4256L153.874 54.9297C152.713 55.9376 151.403 56.7616 149.944 57.4016C148.486 58.0256 146.854 58.3376 145.05 58.3376L145.05 58.3376C142.948 58.3376 141.042 57.9376 139.333 57.1376C137.623 56.3216 136.156 55.2177 134.933 53.8257C133.709 52.4177 132.76 50.7777 132.086 48.9058C131.427 47.0178 131.097 45.0018 131.097 42.8579L131.097 42.8579L131.097 24.6182L138.815 24.6182L138.815 42.8579C138.815 44.9218 139.568 46.7138 141.074 48.2338L141.074 48.2338C142.533 49.7218 144.29 50.4657 146.344 50.4657L146.344 50.4657C148.446 50.4657 150.227 49.7218 151.686 48.2338L151.686 48.2338C153.144 46.7458 153.874 44.9538 153.874 42.8579L153.874 42.8579L153.874 24.6182ZM183.38 23.7062L183.38 23.7062C185.748 23.7062 187.929 24.1542 189.921 25.0502C191.913 25.9462 193.638 27.1782 195.097 28.7461C196.556 30.3301 197.693 32.1701 198.509 34.266C199.325 36.362 199.732 38.618 199.732 41.0339L199.732 41.0339C199.732 43.3859 199.325 45.6098 198.509 47.7058C197.693 49.8178 196.556 51.6577 195.097 53.2257C193.638 54.7937 191.913 56.0256 189.921 56.9216C187.929 57.8336 185.748 58.2896 183.38 58.2896L183.38 58.2896C180.776 58.2896 178.485 57.7856 176.509 56.7776L176.509 56.7776L179.262 49.7458C180.297 50.1937 181.458 50.4177 182.744 50.4177L182.744 50.4177C183.983 50.4177 185.16 50.1857 186.274 49.7218C187.387 49.2578 188.399 48.5698 189.309 47.6578L189.309 47.6578C191.113 45.8178 192.015 43.6099 192.015 41.0339L192.015 41.0339C192.015 38.41 191.113 36.178 189.309 34.338L189.309 34.338C187.411 32.4981 185.223 31.5781 182.744 31.5781L182.744 31.5781C180.172 31.5781 177.984 32.4981 176.18 34.338L176.18 34.338C174.376 36.178 173.474 38.41 173.474 41.0339L173.474 41.0339L173.474 54.8097L173.474 70.5534L165.756 70.5534L165.756 24.5702L173.474 24.5702L173.474 27.1862C174.729 26.1782 176.164 25.3462 177.78 24.6902C179.411 24.0342 181.278 23.7062 183.38 23.7062ZM235.803 44.9698L227.709 44.9698L210.838 44.9698C211.278 45.9778 211.905 46.8738 212.721 47.6578L212.721 47.6578C213.615 48.5698 214.619 49.2578 215.732 49.7218C216.846 50.1857 218.03 50.4177 219.285 50.4177L219.285 50.4177C221.042 50.4177 222.603 50.0017 223.968 49.1698L223.968 49.1698L232.015 52.4337C230.462 54.2737 228.595 55.7056 226.415 56.7296C224.234 57.7696 221.858 58.2896 219.285 58.2896L219.285 58.2896C216.917 58.2896 214.705 57.8336 212.65 56.9216C210.595 56.0256 208.791 54.7937 207.238 53.2257C205.701 51.6577 204.493 49.8178 203.615 47.7058C202.736 45.6098 202.297 43.3859 202.297 41.0339L202.297 41.0339C202.297 38.618 202.736 36.362 203.615 34.266C204.493 32.1701 205.701 30.3301 207.238 28.7461C208.791 27.1782 210.595 25.9462 212.65 25.0502C214.705 24.1542 216.917 23.7062 219.285 23.7062L219.285 23.7062C221.638 23.7062 223.842 24.1542 225.897 25.0502C227.952 25.9462 229.756 27.1782 231.309 28.7461C232.846 30.3301 234.054 32.1701 234.932 34.266C235.811 36.362 236.25 38.618 236.25 41.0339L236.25 41.0339C236.25 42.4259 236.101 43.7379 235.803 44.9698L235.803 44.9698ZM219.285 31.5781L219.285 31.5781C216.791 31.5781 214.603 32.4981 212.721 34.338L212.721 34.338C211.905 35.17 211.278 36.09 210.838 37.098L210.838 37.098L227.709 37.098C227.27 36.09 226.642 35.17 225.826 34.338L225.826 34.338C224.038 32.4981 221.858 31.5781 219.285 31.5781ZM247.521 27.1142L247.521 27.1142C248.713 26.1062 250.07 25.2742 251.591 24.6182C253.113 23.9622 254.838 23.6342 256.768 23.6342L256.768 23.6342L256.768 31.5061C254.195 31.5061 252.007 32.4261 250.203 34.266L250.203 34.266C248.415 36.186 247.521 38.418 247.521 40.9619L247.521 40.9619L247.521 57.4256L239.803 57.4256L239.803 40.9619L239.803 24.5702L247.521 24.5702L247.521 27.1142ZM278.956 11.5144L278.956 11.5144C282.046 11.5144 284.964 12.1144 287.709 13.3144C290.454 14.5144 292.846 16.1544 294.885 18.2343C296.924 20.3143 298.532 22.7542 299.709 25.5542C300.885 28.3381 301.473 31.3061 301.473 34.458L301.473 34.458C301.473 37.61 300.885 40.5859 299.709 43.3859C298.532 46.1858 296.924 48.6258 294.885 50.7057C292.846 52.7857 290.454 54.4257 287.709 55.6256C284.964 56.8256 282.046 57.4256 278.956 57.4256L278.956 57.4256L270.979 57.4256L274.132 49.5538L278.956 49.5538C280.932 49.5538 282.822 49.1698 284.626 48.4018C286.43 47.6338 288.038 46.5538 289.45 45.1618L289.45 45.1618C290.815 43.7219 291.873 42.0899 292.626 40.2659C293.379 38.458 293.756 36.522 293.756 34.458L293.756 34.458C293.756 32.4581 293.379 30.5381 292.626 28.6981C291.873 26.8582 290.815 25.2182 289.45 23.7782L289.45 23.7782C288.038 22.3703 286.43 21.2823 284.626 20.5143C282.822 19.7623 280.932 19.3863 278.956 19.3863L278.956 19.3863L268.038 19.3863L268.038 38.394L268.038 49.5538L268.038 57.4256L260.32 57.4256L260.32 11.5144L278.956 11.5144ZM327.45 24.6182L335.167 24.6182L335.167 57.4256L327.45 57.4256L327.45 54.9297C326.289 55.9376 324.987 56.7616 323.544 57.4016C322.085 58.0256 320.454 58.3376 318.65 58.3376L318.65 58.3376C316.548 58.3376 314.642 57.9376 312.932 57.1376C311.207 56.3216 309.732 55.2177 308.509 53.8257C307.285 52.4177 306.344 50.7777 305.685 48.9058C305.026 47.0178 304.697 45.0018 304.697 42.8579L304.697 42.8579L304.697 24.6182L312.414 24.6182L312.414 42.8579C312.414 44.9218 313.16 46.7138 314.65 48.2338L314.65 48.2338C316.109 49.7218 317.865 50.4657 319.92 50.4657L319.92 50.4657C322.022 50.4657 323.803 49.7218 325.261 48.2338L325.261 48.2338C326.72 46.7458 327.45 44.9538 327.45 42.8579L327.45 42.8579L327.45 24.6182ZM356.979 23.7062L356.979 23.7062C359.332 23.7062 361.504 24.1542 363.497 25.0502C365.504 25.9462 367.23 27.1782 368.673 28.7461C370.132 30.3301 371.269 32.1701 372.085 34.266C372.9 36.362 373.308 38.618 373.308 41.0339L373.308 41.0339C373.308 43.3859 372.9 45.6098 372.085 47.7058C371.269 49.8178 370.132 51.6577 368.673 53.2257C367.23 54.7937 365.504 56.0256 363.497 56.9216C361.504 57.8336 359.332 58.2896 356.979 58.2896L356.979 58.2896C354.359 58.2896 352.061 57.7856 350.085 56.7776L350.085 56.7776L352.861 49.7458C353.897 50.1937 355.057 50.4177 356.344 50.4177L356.344 50.4177C357.583 50.4177 358.759 50.1857 359.873 49.7218C360.987 49.2578 361.991 48.5698 362.885 47.6578L362.885 47.6578C364.689 45.8178 365.591 43.6099 365.591 41.0339L365.591 41.0339C365.591 38.41 364.689 36.178 362.885 34.338L362.885 34.338C361.002 32.4981 358.822 31.5781 356.344 31.5781L356.344 31.5781C353.771 31.5781 351.583 32.4981 349.779 34.338L349.779 34.338C347.975 36.178 347.073 38.41 347.073 41.0339L347.073 41.0339L347.073 54.8097L347.073 70.5534L339.356 70.5534L339.356 24.5702L347.073 24.5702L347.073 27.1862C348.312 26.1782 349.748 25.3462 351.379 24.6902C353.01 24.0342 354.877 23.7062 356.979 23.7062ZM409.402 44.9698L401.285 44.9698L384.438 44.9698C384.861 45.9778 385.481 46.8738 386.297 47.6578L386.297 47.6578C387.206 48.5698 388.218 49.2578 389.332 49.7218C390.446 50.1857 391.622 50.4177 392.861 50.4177L392.861 50.4177C394.618 50.4177 396.187 50.0017 397.567 49.1698L397.567 49.1698L405.591 52.4337C404.053 54.2737 402.195 55.7056 400.014 56.7296C397.818 57.7696 395.434 58.2896 392.861 58.2896L392.861 58.2896C390.508 58.2896 388.304 57.8336 386.249 56.9216C384.179 56.0256 382.375 54.7937 380.838 53.2257C379.3 51.6577 378.093 49.8178 377.214 47.7058C376.336 45.6098 375.897 43.3859 375.897 41.0339L375.897 41.0339C375.897 38.618 376.336 36.362 377.214 34.266C378.093 32.1701 379.3 30.3301 380.838 28.7461C382.375 27.1782 384.179 25.9462 386.249 25.0502C388.304 24.1542 390.508 23.7062 392.861 23.7062L392.861 23.7062C395.23 23.7062 397.442 24.1542 399.496 25.0502C401.551 25.9462 403.347 27.1782 404.885 28.7461C406.438 30.3301 407.653 32.1701 408.532 34.266C409.41 36.362 409.849 38.618 409.849 41.0339L409.849 41.0339C409.849 42.4259 409.7 43.7379 409.402 44.9698L409.402 44.9698ZM392.861 31.5781L392.861 31.5781C390.383 31.5781 388.195 32.4981 386.297 34.338L386.297 34.338C385.481 35.17 384.861 36.09 384.438 37.098L384.438 37.098L401.285 37.098C400.861 36.09 400.242 35.17 399.426 34.338L399.426 34.338C397.622 32.4981 395.434 31.5781 392.861 31.5781ZM421.096 27.1142L421.096 27.1142C422.304 26.1062 423.669 25.2742 425.191 24.6182C426.712 23.9622 428.438 23.6342 430.367 23.6342L430.367 23.6342L430.367 31.5061C427.794 31.5061 425.606 32.4261 423.802 34.266L423.802 34.266C421.998 36.186 421.096 38.418 421.096 40.9619L421.096 40.9619L421.096 57.4256L413.379 57.4256L413.379 40.9619L413.379 24.5702L421.096 24.5702L421.096 27.1142ZM452.555 11.5144L452.555 11.5144C455.645 11.5144 458.563 12.1144 461.308 13.3144C464.053 14.5144 466.437 16.1544 468.461 18.2343C470.5 20.3143 472.108 22.7542 473.284 25.5542C474.477 28.3381 475.073 31.3061 475.073 34.458L475.073 34.458C475.073 37.61 474.477 40.5859 473.284 43.3859C472.108 46.1858 470.5 48.6258 468.461 50.7057C466.437 52.7857 464.053 54.4257 461.308 55.6256C458.563 56.8256 455.645 57.4256 452.555 57.4256L452.555 57.4256L444.579 57.4256L447.732 49.5538L452.555 49.5538C454.532 49.5538 456.414 49.1698 458.202 48.4018C460.006 47.6338 461.614 46.5538 463.026 45.1618L463.026 45.1618C464.406 43.7219 465.473 42.0899 466.226 40.2659C466.979 38.458 467.355 36.522 467.355 34.458L467.355 34.458C467.355 32.4581 466.979 30.5381 466.226 28.6981C465.473 26.8582 464.406 25.2182 463.026 23.7782L463.026 23.7782C461.614 22.3703 460.006 21.2823 458.202 20.5143C456.414 19.7623 454.532 19.3863 452.555 19.3863L452.555 19.3863L441.614 19.3863L441.614 38.394L441.614 49.5538L441.614 57.4256L433.896 57.4256L433.896 11.5144L452.555 11.5144ZM509.849 32.8981L509.849 32.8981C511.575 34.114 512.947 35.682 513.967 37.602C515.002 39.5379 515.52 41.6419 515.52 43.9139L515.52 43.9139L515.52 44.0339C515.52 45.8738 515.175 47.6178 514.484 49.2658C513.81 50.8977 512.869 52.3137 511.661 53.5137C510.453 54.7297 509.057 55.6816 507.473 56.3696C505.888 57.0736 504.194 57.4256 502.39 57.4256L502.39 57.4256L489.59 57.4256L492.696 49.5538L502.39 49.5538C503.896 49.5538 505.175 49.0178 506.226 47.9458C507.276 46.8738 507.802 45.5698 507.802 44.0339L507.802 44.0339L507.802 43.9139C507.802 42.3779 507.276 41.0739 506.226 40.0019C505.175 38.93 503.896 38.394 502.39 38.394L502.39 38.394L499.237 38.394L486.649 38.394L486.649 49.5538L486.649 57.4256L478.931 57.4256L478.931 38.394L478.931 30.5221L478.931 11.5144L499.237 11.5144C501.041 11.5144 502.751 11.8584 504.367 12.5464C505.967 13.2504 507.355 14.2184 508.531 15.4504C509.724 16.6664 510.657 18.0823 511.331 19.6983C512.022 21.3143 512.367 23.0422 512.367 24.8822L512.367 24.8822L512.367 25.0262C512.367 26.5142 512.139 27.9221 511.684 29.2501C511.245 30.5781 510.633 31.7941 509.849 32.8981ZM504.649 25.0262L504.649 24.8822C504.649 23.3622 504.124 22.0663 503.073 20.9943C502.022 19.9223 500.743 19.3863 499.237 19.3863L499.237 19.3863L486.649 19.3863L486.649 30.5221L499.237 30.5221C500.743 30.5221 502.022 29.9861 503.073 28.9141C504.124 27.8422 504.649 26.5462 504.649 25.0262L504.649 25.0262Z" fill="#7628f8" fill-rule="evenodd" opacity="1" stroke="none"/>
</g>
</g>
</svg>
