<?xml version="1.0" encoding="UTF-8" standalone="no"?>
<!DOCTYPE svg PUBLIC "-//W3C//DTD SVG 1.1//EN" "http://www.w3.org/Graphics/SVG/1.1/DTD/svg11.dtd">
<!-- Created with Vectornator (http://vectornator.io/) -->
<svg height="100%" stroke-miterlimit="10" style="fill-rule:nonzero;clip-rule:evenodd;stroke-linecap:round;stroke-linejoin:round;" version="1.1" viewBox="0 0 100 100" width="100%" xml:space="preserve" xmlns="http://www.w3.org/2000/svg" xmlns:vectornator="http://vectornator.io" xmlns:xlink="http://www.w3.org/1999/xlink">
<defs/>
<g id="Untitled" vectornator:layerName="Untitled">
<g opacity="1" vectornator:layerName="g">
<path d="M10.47 9.665L89.53 9.665L89.53 9.665L89.53 90.335L89.53 90.335L10.47 90.335L10.47 90.335L10.47 9.665L10.47 9.665Z" fill="#f15a24" fill-opacity="0" fill-rule="nonzero" opacity="1" stroke="none" vectornator:layerName="path"/>
<path d="M89.53 37.7613L89.53 9.722L43.9308 9.722C31.7265 9.722 21.7143 19.7837 21.4743 32.1764L21.4683 32.1764L21.4683 44.8761L26.9444 44.8761L26.9444 32.1764L26.9504 32.1764C27.1904 22.8657 34.7486 15.3079 43.9308 15.3079L84.0499 15.3079L84.0499 32.1764L50.143 32.1764C46.8869 32.1764 43.8878 33.9564 43.8878 37.7613L89.53 37.7613ZM10.47 62.2387L10.47 90.279L56.0652 90.279C68.2695 90.279 78.2807 80.2173 78.5207 67.8246L78.5277 67.8246L78.5277 55.1239L73.0516 55.1239L73.0516 67.8236L73.0416 67.8236C72.8066 77.1343 65.2464 84.6971 56.0652 84.6971L15.9461 84.6971L15.9461 67.8236L49.853 67.8236C53.1081 67.8236 56.1082 66.0436 56.1082 62.2387L10.47 62.2387ZM21.4223 73.4104L55.4441 73.4104C60.2933 73.4104 62.0343 70.3835 62.0343 65.7166L62.0343 43.4932L89.53 43.4932L89.53 68.3265C89.53 78.7273 82.6458 87.5651 73.2946 90.335C79.5427 85.2551 84.0539 77.5233 84.0539 68.3265L84.0539 49.079L67.5104 49.079L67.5104 65.7166C67.5104 73.2624 63.2533 79.1073 55.4441 79.1073L21.4223 79.1073L21.4223 73.4104ZM78.5737 26.5906L44.5509 26.5906C39.7017 26.5906 37.9607 29.6175 37.9607 34.2834L37.9607 56.5078L10.47 56.5078L10.47 31.6735C10.47 21.2737 17.3542 12.4359 26.7054 9.665C20.4573 14.7449 15.9461 22.4767 15.9461 31.6735L15.9461 50.921L32.4856 50.921L32.4856 34.2834C32.4856 26.7376 36.7427 20.8927 44.5509 20.8927L78.5737 20.8927L78.5737 26.5906Z" fill="#7628f8" fill-rule="evenodd" opacity="1" stroke="none" vectornator:layerName="path"/>
</g>
</g>
</svg>
