<?xml version="1.0" encoding="UTF-8"?>
<svg id="Capa_2" data-name="Capa 2" xmlns="http://www.w3.org/2000/svg" version="1.1" viewBox="0 0 1920 455.8">
  <defs>
    <style>
      .cls-1 {
        fill: #45be76;
      }

      .cls-1, .cls-2, .cls-3, .cls-4 {
        stroke-width: 0px;
      }

      .cls-2 {
        fill: #fff;
      }

      .cls-3 {
        fill: #3073b7;
      }

      .cls-4 {
        fill: #d0342c;
      }
    </style>
  </defs>
  <g id="_2f34d201-aa88-4745-b186-cb06a332ff64_1" data-name="2f34d201-aa88-4745-b186-cb06a332ff64@1">
    <g>
      <g>
        <path class="cls-1" d="M14.9,106.2c25.8-14.9,51.6-29.7,77.3-44.6,3-1.7,6.6-1.7,9.6,0,25.7,14.9,51.5,29.7,77.2,44.6,3.2,1.8,3.2,6.4,0,8.3-25.7,14.9-51.5,29.7-77.2,44.6-3,1.7-6.6,1.7-9.6,0-25.8-14.9-51.6-29.7-77.3-44.6-3.2-1.8-3.2-6.4,0-8.3Z"/>
        <path class="cls-1" d="M119.5,45.9c25.8-14.9,51.6-29.7,77.3-44.6,3-1.7,6.6-1.7,9.6,0,25.7,14.9,51.5,29.7,77.2,44.6,3.2,1.8,3.2,6.4,0,8.3-25.7,14.9-51.5,29.7-77.2,44.6-3,1.7-6.6,1.7-9.6,0-25.8-14.9-51.6-29.7-77.3-44.6-3.2-1.8-3.2-6.4,0-8.3Z"/>
        <path class="cls-1" d="M119.4,166.6c25.8-14.9,51.6-29.7,77.3-44.6,3-1.7,6.6-1.7,9.6,0,25.7,14.9,51.5,29.7,77.2,44.6,3.2,1.8,3.2,6.4,0,8.3-25.7,14.9-51.5,29.7-77.2,44.6-3,1.7-6.6,1.7-9.6,0-25.8-14.9-51.6-29.7-77.3-44.6-3.2-1.8-3.2-6.4,0-8.3Z"/>
        <path class="cls-1" d="M224,106.2c25.8-14.9,51.6-29.7,77.3-44.6,3-1.7,6.6-1.7,9.6,0,25.7,14.9,51.5,29.7,77.2,44.6,3.2,1.8,3.2,6.4,0,8.3-25.7,14.9-51.5,29.7-77.2,44.6-3,1.7-6.6,1.7-9.6,0-25.8-14.9-51.6-29.7-77.3-44.6-3.2-1.8-3.2-6.4,0-8.3Z"/>
      </g>
      <g>
        <path class="cls-3" d="M209.2,451c0-29.8,0-59.5,0-89.3,0-3.4,1.8-6.6,4.8-8.3,25.8-14.8,51.4-29.8,77.2-44.6,3.2-1.8,7.2.5,7.2,4.1,0,29.7,0,59.5,0,89.2,0,3.4-1.8,6.6-4.8,8.3-25.8,14.9-51.5,29.8-77.3,44.7-3.2,1.8-7.2-.5-7.2-4.1Z"/>
        <path class="cls-3" d="M209.2,330.3c0-29.8,0-59.5,0-89.3,0-3.4,1.8-6.6,4.8-8.3,25.8-14.8,51.4-29.8,77.2-44.6,3.2-1.8,7.2.5,7.2,4.1,0,29.7,0,59.5,0,89.2,0,3.4-1.8,6.6-4.8,8.3-25.8,14.9-51.5,29.8-77.3,44.7-3.2,1.8-7.2-.5-7.2-4.1Z"/>
        <path class="cls-3" d="M313.7,390.6c0-29.8,0-59.5,0-89.3,0-3.4,1.8-6.6,4.8-8.3,25.8-14.8,51.4-29.8,77.2-44.6,3.2-1.8,7.2.5,7.2,4.1,0,29.7,0,59.5,0,89.2,0,3.4-1.8,6.6-4.8,8.3-25.8,14.9-51.5,29.8-77.3,44.7-3.2,1.8-7.2-.5-7.2-4.1Z"/>
        <path class="cls-3" d="M313.7,269.9c0-29.8,0-59.5,0-89.3,0-3.4,1.8-6.6,4.8-8.3,25.8-14.8,51.4-29.8,77.2-44.6,3.2-1.8,7.2.5,7.2,4.1,0,29.7,0,59.5,0,89.2,0,3.4-1.8,6.6-4.8,8.3-25.8,14.9-51.5,29.8-77.3,44.7-3.2,1.8-7.2-.5-7.2-4.1Z"/>
      </g>
      <g>
        <path class="cls-4" d="M193.8,451c0-29.8,0-59.5,0-89.3,0-3.4-1.8-6.6-4.8-8.3-25.8-14.8-51.4-29.8-77.2-44.6-3.2-1.8-7.2.5-7.2,4.1,0,29.7,0,59.5,0,89.2,0,3.4,1.8,6.6,4.8,8.3,25.8,14.9,51.5,29.8,77.3,44.7,3.2,1.8,7.2-.5,7.2-4.1Z"/>
        <path class="cls-4" d="M193.8,330.3c0-29.8,0-59.5,0-89.3,0-3.4-1.8-6.6-4.8-8.3-25.8-14.8-51.4-29.8-77.2-44.6-3.2-1.8-7.2.5-7.2,4.1,0,29.7,0,59.5,0,89.2,0,3.4,1.8,6.6,4.8,8.3,25.8,14.9,51.5,29.8,77.3,44.7,3.2,1.8,7.2-.5,7.2-4.1Z"/>
        <path class="cls-4" d="M89.3,390.6c0-29.8,0-59.5,0-89.3,0-3.4-1.8-6.6-4.8-8.3-25.8-14.8-51.4-29.8-77.2-44.6-3.2-1.8-7.2.5-7.2,4.1,0,29.7,0,59.5,0,89.2,0,3.4,1.8,6.6,4.8,8.3,25.8,14.9,51.5,29.8,77.3,44.7,3.2,1.8,7.2-.5,7.2-4.1Z"/>
        <path class="cls-4" d="M89.3,269.9c0-29.8,0-59.5,0-89.3,0-3.4-1.8-6.6-4.8-8.3-25.8-14.8-51.4-29.8-77.2-44.6-3.2-1.8-7.2.5-7.2,4.1,0,29.7,0,59.5,0,89.2,0,3.4,1.8,6.6,4.8,8.3,25.8,14.9,51.5,29.8,77.3,44.7,3.2,1.8,7.2-.5,7.2-4.1Z"/>
      </g>
    </g>
    <g>
      <path class="cls-2" d="M622.3,195.1l-24.4,14.1c-2.9-9.7-8.8-14.1-14-17.2-5.3-3.1-11.8-4.6-19.6-4.6s-14.6,1.5-18.7,4.5c-4.2,3-6.2,6.8-6.2,11.5s2.7,9.3,8.1,11.5c5.4,2.3,13.7,4.1,24.7,5.6,18.6,2.5,32.5,7.5,41.7,14.9,9.1,7.4,13.7,17.9,13.7,31.5s-2.6,17.6-7.7,24.6c-5.2,7-12.2,12.4-21,16.2-8.9,3.8-19,5.7-30.4,5.7s-22-1.9-31.2-5.8c-9.2-3.9-16.5-9.2-21.9-15.9-4.3-5.4-6.9-11.5-7.7-18.2l25.1-14.5c3,10.8,8.2,16.5,13.9,20.2,5.7,3.6,13,5.4,21.9,5.4s15.7-1.4,20.5-4.2c4.8-2.8,7.2-6.7,7.2-11.8s-2.9-11-8.6-14.1c-5.7-3.1-14.7-5.2-27-6.5-17.7-2-31-6.8-39.7-14.4-8.7-7.6-13-17.2-13-28.8s2.4-16.5,7.1-23.5c4.7-7,11.3-12.5,19.8-16.6,8.5-4.1,18.4-6.1,29.6-6.1s20.7,1.9,29.6,5.6c8.9,3.7,15.9,8.9,21.2,15.5,3.7,4.7,6.1,9.8,7.2,15.4"/>
      <path class="cls-2" d="M695.5,313.4c-10.1,0-19-2.5-26.5-7.5-7.5-5-13.3-11.9-17.2-20.6-4-8.8-6-18.9-6-30.3v-93.7h31.5v88c0,11,2.9,19.7,8.7,25.9,5.8,6.2,14,9.4,24.7,9.4s19.8-3.4,25.3-10.3c5.4-6.9,8.1-16.1,8.1-27.7v-85.3h31.5v149.4h-31.5l-5.4-21c-5.4,13.5-20,23.8-43.2,23.8Z"/>
      <path class="cls-2" d="M800,356.9v-195.5h31.5l5.4,24.4c1.8-5.4,4.8-10.2,9-14.3,4.2-4.1,9.3-7.2,15.5-9.5,6.2-2.3,12.9-3.4,20.4-3.4,12.7,0,23.9,3.3,33.7,9.9,9.8,6.6,17.4,15.7,22.9,27.3,5.5,11.6,8.3,25,8.3,40.2s-2.8,28.4-8.3,40.1c-5.5,11.7-13.2,20.8-22.9,27.4-9.8,6.6-21,9.9-33.7,9.9-37.7,0-48.4-21.7-50.2-27.2v70.6h-31.5ZM873.3,284.6c12.7,0,22.8-4.4,30.4-13.2,7.6-8.8,11.4-20.6,11.4-35.4s-3.8-26.9-11.4-35.6c-7.6-8.7-17.7-13-30.4-13s-22.8,4.3-30.4,13c-7.6,8.7-11.4,20.6-11.4,35.6s3.8,26.7,11.4,35.4c7.6,8.8,17.7,13.2,30.4,13.2Z"/>
      <path class="cls-2" d="M1032.8,313.4c-13.8,0-26-3.1-36.8-9.2-10.8-6.2-19.2-15-25.3-26.6-6.1-11.6-9.1-25.4-9.1-41.6s2.9-30.2,8.7-41.7c5.8-11.5,13.8-20.3,24-26.5,10.2-6.2,22.1-9.2,35.7-9.2s25.4,2.9,35.6,8.7c10.1,5.8,18.1,13.9,23.8,24.3,5.7,10.4,8.6,22.6,8.6,36.5s-.1,6.7-.4,9.8c-.3,3.1-.6,5.6-1,7.6h-102.7c0,8.3,1.8,15.4,5.3,21.3,3.5,5.9,8.2,10.3,14.1,13.3,5.9,3,12.4,4.5,19.4,4.5s16.7-2.4,22.9-7.2c6.2-4.8,10.2-10.8,11.8-18.1l30.4,2.2c-1.3,10-4.8,18.9-10.6,26.8-5.8,7.9-13.4,14-22.7,18.5-9.3,4.4-20,6.7-31.9,6.7ZM994.7,219.5h70.6c0-6.3-1.5-11.9-4.6-16.7-3.1-4.8-7.2-8.6-12.5-11.3-5.3-2.7-11.3-4.1-18.2-4.1s-12.7,1.4-17.9,4.1c-5.3,2.7-9.4,6.5-12.5,11.3-3.1,4.8-4.7,10.4-4.9,16.7Z"/>
      <path class="cls-2" d="M1117,310.7v-149.4h31.5v24.4c4.7-23.9,27.3-27.2,35.3-27.2s4.9.2,7.1.7c2.2.5,4.3,1.1,6.5,2l-2.7,31.5c-2.4-.9-4.8-1.6-7.2-2-2.4-.4-5-.7-7.7-.7-11.2,0-19.2,3.8-24,11.5-4.8,7.7-7.2,18.3-7.2,31.9v77.1h-31.5Z"/>
      <g>
        <path class="cls-2" d="M1418.1,313.4c-10.1,0-19-2.5-26.5-7.5-7.5-5-13.3-11.9-17.2-20.6-4-8.8-6-18.9-6-30.3v-93.7h31.5v88c0,11,2.9,19.7,8.7,25.9,5.8,6.2,14,9.4,24.7,9.4s19.8-3.4,25.3-10.3c5.4-6.9,8.1-16.1,8.1-27.7v-85.3h31.5v149.4h-31.5l-5.4-21c-5.4,13.5-20,23.8-43.2,23.8Z"/>
        <path class="cls-2" d="M1522.7,356.9v-195.5h31.5l5.4,24.4c1.8-5.4,4.8-10.2,9-14.3,4.2-4.1,9.3-7.2,15.5-9.5,6.2-2.3,12.9-3.4,20.4-3.4,12.7,0,23.9,3.3,33.7,9.9,9.8,6.6,17.4,15.7,22.9,27.3,5.5,11.6,8.3,25,8.3,40.2s-2.8,28.4-8.3,40.1c-5.5,11.7-13.2,20.8-22.9,27.4-9.8,6.6-21,9.9-33.7,9.9-37.7,0-48.4-21.7-50.2-27.2v70.6h-31.5ZM1596,284.6c12.7,0,22.8-4.4,30.4-13.2,7.6-8.8,11.4-20.6,11.4-35.4s-3.8-26.9-11.4-35.6c-7.6-8.7-17.7-13-30.4-13s-22.8,4.3-30.4,13c-7.6,8.7-11.4,20.6-11.4,35.6s3.8,26.7,11.4,35.4c7.6,8.8,17.7,13.2,30.4,13.2Z"/>
        <path class="cls-2" d="M1755.4,313.4c-13.8,0-26-3.1-36.8-9.2-10.8-6.2-19.2-15-25.3-26.6-6.1-11.6-9.1-25.4-9.1-41.6s2.9-30.2,8.7-41.7c5.8-11.5,13.8-20.3,24-26.5,10.2-6.2,22.1-9.2,35.7-9.2s25.4,2.9,35.6,8.7c10.1,5.8,18.1,13.9,23.8,24.3,5.7,10.4,8.6,22.6,8.6,36.5s-.1,6.7-.4,9.8c-.3,3.1-.6,5.6-1,7.6h-102.7c0,8.3,1.8,15.4,5.3,21.3,3.5,5.9,8.2,10.3,14.1,13.3,5.9,3,12.4,4.5,19.4,4.5s16.7-2.4,22.9-7.2c6.2-4.8,10.2-10.8,11.8-18.1l30.4,2.2c-1.3,10-4.8,18.9-10.6,26.8-5.8,7.9-13.4,14-22.7,18.5-9.3,4.4-20,6.7-31.9,6.7ZM1717.4,219.5h70.6c0-6.3-1.5-11.9-4.6-16.7-3.1-4.8-7.2-8.6-12.5-11.3-5.3-2.7-11.3-4.1-18.2-4.1s-12.7,1.4-17.9,4.1c-5.3,2.7-9.4,6.5-12.5,11.3-3.1,4.8-4.7,10.4-4.9,16.7Z"/>
        <path class="cls-2" d="M1839.6,310.7v-149.4h31.5v24.4c4.7-23.9,27.3-27.2,35.3-27.2s4.9.2,7.1.7c2.2.5,4.3,1.1,6.5,2l-2.7,31.5c-2.4-.9-4.8-1.6-7.2-2-2.4-.4-5-.7-7.7-.7-11.2,0-19.2,3.8-24,11.5-4.8,7.7-7.2,18.3-7.2,31.9v77.1h-31.5Z"/>
      </g>
      <path class="cls-2" d="M1345.4,115.2v195.5h-31.5l-5.4-24.4c-1.8,5.4-4.8,10.2-9,14.3-4.2,4.1-9.3,7.2-15.5,9.5-6.2,2.3-12.9,3.4-20.4,3.4-12.7,0-23.9-3.3-33.7-9.9-9.8-6.6-17.4-15.7-22.9-27.3-5.5-11.6-8.3-25-8.3-40.2s2.8-28.4,8.3-40.1c5.5-11.7,13.2-20.8,22.9-27.4,9.8-6.6,21-9.9,33.7-9.9,37.7,0,48.4,21.7,50.2,27.2v-70.6h31.5ZM1272,187.4c-12.7,0-22.8,4.4-30.4,13.2-7.6,8.8-11.4,20.6-11.4,35.4s3.8,26.9,11.4,35.6c7.6,8.7,17.7,13,30.4,13s22.8-4.3,30.4-13c7.6-8.7,11.4-20.6,11.4-35.6s-3.8-26.7-11.4-35.4c-7.6-8.8-17.7-13.2-30.4-13.2Z"/>
    </g>
  </g>
</svg>