<?xml version="1.0" encoding="UTF-8" standalone="no"?>
<!DOCTYPE svg PUBLIC "-//W3C//DTD SVG 1.1//EN" "http://www.w3.org/Graphics/SVG/1.1/DTD/svg11.dtd">
<!-- Created with Vectornator (http://vectornator.io/) -->
<svg height="100%" stroke-miterlimit="10" style="fill-rule:nonzero;clip-rule:evenodd;stroke-linecap:round;stroke-linejoin:round;" version="1.1" viewBox="0 0 515.38 80.67" width="100%" xml:space="preserve" xmlns="http://www.w3.org/2000/svg" xmlns:xlink="http://www.w3.org/1999/xlink">
<defs/>
<clipPath id="ArtboardFrame">
<rect height="80.67" width="515.38" x="0" y="0"/>
</clipPath>
<g clip-path="url(#ArtboardFrame)" id="Untitled">
<g opacity="1">
<g opacity="1">
<path d="M0 0L79.0585-3.55271e-15L79.0585-3.55271e-15L79.0585 80.67L79.0585 80.67L0 80.67L0 80.67L0 0L0 0Z" fill="#ffffff" fill-opacity="0" fill-rule="nonzero" opacity="1" stroke="none"/>
<path d="M79.0585 28.0963L79.0585 0.0571371L33.4604 0.0571371C21.256 0.0571371 11.2447 10.1187 11.0048 22.5109L10.9984 22.5109L10.9984 35.2115L16.4744 35.2115L16.4744 22.5109L16.4807 22.5109C16.7207 13.2008 24.2788 5.64256 33.4604 5.64256L73.5784 5.64256L73.5784 22.5109L39.672 22.5109C36.4166 22.5109 33.417 24.2908 33.417 28.0963L79.0585 28.0963ZM0 52.5737L0 80.6139L45.594 80.6139C57.7983 80.6139 67.8096 70.5524 68.0495 58.1601L68.0559 58.1601L68.0559 45.4585L62.5799 45.4585L62.5799 58.1591L62.5704 58.1591C62.3347 67.4692 54.7755 75.0328 45.594 75.0328L5.47597 75.0328L5.47597 58.1591L39.3824 58.1591C42.6377 58.1591 45.6373 56.3792 45.6373 52.5737L0 52.5737ZM10.9519 63.7456L44.9735 63.7456C49.8227 63.7456 51.5635 60.7184 51.5635 56.0515L51.5635 33.8284L79.0585 33.8284L79.0585 58.6614C79.0585 69.0625 72.1737 77.9005 62.823 80.67C69.0716 75.5902 73.5826 67.8584 73.5826 58.6614L73.5826 39.4138L57.0395 39.4138L57.0395 56.0515C57.0395 63.5979 52.7821 69.442 44.9735 69.442L10.9519 69.442L10.9519 63.7456ZM68.1024 16.9255L34.0808 16.9255C29.2316 16.9255 27.4908 19.9527 27.4908 24.6185L27.4908 46.8427L0 46.8427L0 22.0086C0 11.6085 6.88486 2.77061 16.2355 3.55271e-15C9.98695 5.07981 5.47597 12.8116 5.47597 22.0086L5.47597 41.2562L22.0148 41.2562L22.0148 24.6185C22.0148 17.0721 26.2722 11.228 34.0808 11.228L68.1024 11.228L68.1024 16.9255Z" fill="#7628f8" fill-rule="evenodd" opacity="1" stroke="none"/>
</g>
<path d="M127.734 44.2288L127.734 44.2288C127.734 46.3727 127.397 48.3087 126.723 50.0367C126.032 51.7646 125.052 53.2286 123.781 54.4286C122.526 55.6445 120.997 56.5805 119.193 57.2365C117.389 57.8925 115.374 58.2205 113.146 58.2205L113.146 58.2205C109.585 58.2205 106.409 57.6365 103.617 56.4685C100.84 55.3166 98.5501 53.9966 96.7462 52.5086L96.7462 52.5086L102.087 47.0607C103.499 48.3727 105.083 49.3807 106.84 50.0847L106.84 50.0847C107.907 50.5166 108.911 50.7966 109.852 50.9246C110.809 51.0526 111.585 51.1166 112.181 51.1166L112.181 51.1166C113.295 51.1166 114.315 50.9806 115.24 50.7086C116.15 50.4206 116.95 50.0367 117.64 49.5567L117.64 49.5567C119.099 48.4527 119.828 47.0047 119.828 45.2127L119.828 45.2127C119.828 44.1248 119.444 43.1408 118.675 42.2608L118.675 42.2608C118.079 41.5728 117.303 41.0048 116.346 40.5568L116.346 40.5568C115.577 40.1248 114.77 39.7728 113.923 39.5008C113.06 39.2448 112.283 39.0049 111.593 38.7809L111.593 38.7809C111.389 38.7009 111.201 38.6529 111.028 38.6369C110.856 38.6049 110.699 38.5489 110.558 38.4689L110.558 38.4689C110.479 38.4689 110.354 38.4209 110.181 38.3249L110.181 38.3249C109.287 38.0689 107.993 37.6129 106.299 36.9569C104.605 36.3009 102.919 35.4049 101.24 34.2689L101.24 34.2689C97.3344 31.597 95.3815 28.317 95.3815 24.4291L95.3815 24.4291C95.3815 21.8532 95.8207 19.6772 96.6991 17.9012C97.5775 16.1253 98.7305 14.6773 100.158 13.5573C101.57 12.4533 103.146 11.6613 104.887 11.1814C106.613 10.7014 108.315 10.4614 109.993 10.4614L109.993 10.4614C113.083 10.4614 115.679 10.8294 117.781 11.5653C119.883 12.3013 121.554 13.0453 122.793 13.7973L122.793 13.7973C123.436 14.1973 123.985 14.5813 124.44 14.9493C124.879 15.3173 125.272 15.6533 125.617 15.9573L125.617 15.9573L120.158 21.5972C118.997 20.4132 117.813 19.5172 116.605 18.9092L116.605 18.9092C114.817 18.0452 112.934 17.6132 110.958 17.6132L110.958 17.6132C110.095 17.6132 109.24 17.7172 108.393 17.9252C107.53 18.1492 106.777 18.4372 106.134 18.7892L106.134 18.7892C104.252 19.9732 103.311 21.5252 103.311 23.4451L103.311 23.4451C103.311 24.6291 103.695 25.6371 104.464 26.4691L104.464 26.4691C105.013 27.1251 105.781 27.7091 106.77 28.221L106.77 28.221C107.585 28.669 108.448 29.021 109.358 29.277C110.252 29.533 111.083 29.773 111.852 29.997L111.852 29.997L112.628 30.189C112.848 30.285 113.256 30.421 113.852 30.597C114.448 30.773 115.154 31.037 115.97 31.389C116.785 31.725 117.672 32.133 118.628 32.613C119.601 33.109 120.558 33.6849 121.499 34.3409L121.499 34.3409C125.656 37.1249 127.734 40.4208 127.734 44.2288ZM153.734 24.5491L161.452 24.5491L161.452 57.3565L153.734 57.3565L153.734 54.8606C152.573 55.8685 151.264 56.6925 149.805 57.3325C148.346 57.9565 146.715 58.2685 144.911 58.2685L144.911 58.2685C142.809 58.2685 140.903 57.8685 139.193 57.0685C137.483 56.2525 136.017 55.1486 134.793 53.7566C133.57 52.3486 132.621 50.7086 131.946 48.8367C131.287 46.9487 130.958 44.9327 130.958 42.7888L130.958 42.7888L130.958 24.5491L138.675 24.5491L138.675 42.7888C138.675 44.8527 139.428 46.6447 140.934 48.1647L140.934 48.1647C142.393 49.6527 144.15 50.3966 146.205 50.3966L146.205 50.3966C148.307 50.3966 150.087 49.6527 151.546 48.1647L151.546 48.1647C153.005 46.6767 153.734 44.8847 153.734 42.7888L153.734 42.7888L153.734 24.5491ZM183.24 23.6371L183.24 23.6371C185.609 23.6371 187.789 24.0851 189.781 24.9811C191.773 25.8771 193.499 27.1091 194.958 28.677C196.416 30.261 197.554 32.101 198.369 34.1969C199.185 36.2929 199.593 38.5489 199.593 40.9648L199.593 40.9648C199.593 43.3168 199.185 45.5407 198.369 47.6367C197.554 49.7487 196.416 51.5886 194.958 53.1566C193.499 54.7246 191.773 55.9565 189.781 56.8525C187.789 57.7645 185.609 58.2205 183.24 58.2205L183.24 58.2205C180.636 58.2205 178.346 57.7165 176.369 56.7085L176.369 56.7085L179.122 49.6767C180.158 50.1246 181.318 50.3486 182.605 50.3486L182.605 50.3486C183.844 50.3486 185.02 50.1167 186.134 49.6527C187.248 49.1887 188.26 48.5007 189.169 47.5887L189.169 47.5887C190.973 45.7487 191.875 43.5408 191.875 40.9648L191.875 40.9648C191.875 38.3409 190.973 36.1089 189.169 34.2689L189.169 34.2689C187.271 32.429 185.083 31.509 182.605 31.509L182.605 31.509C180.032 31.509 177.844 32.429 176.04 34.2689L176.04 34.2689C174.236 36.1089 173.334 38.3409 173.334 40.9648L173.334 40.9648L173.334 54.7406L173.334 70.4843L165.617 70.4843L165.617 24.5011L173.334 24.5011L173.334 27.1171C174.589 26.1091 176.024 25.2771 177.64 24.6211C179.271 23.9651 181.138 23.6371 183.24 23.6371ZM235.663 44.9007L227.569 44.9007L210.699 44.9007C211.138 45.9087 211.765 46.8047 212.581 47.5887L212.581 47.5887C213.475 48.5007 214.479 49.1887 215.593 49.6527C216.707 50.1167 217.891 50.3486 219.146 50.3486L219.146 50.3486C220.903 50.3486 222.463 49.9327 223.828 49.1007L223.828 49.1007L231.875 52.3646C230.322 54.2046 228.456 55.6365 226.275 56.6605C224.095 57.7005 221.718 58.2205 219.146 58.2205L219.146 58.2205C216.777 58.2205 214.565 57.7645 212.51 56.8525C210.456 55.9565 208.652 54.7246 207.099 53.1566C205.561 51.5886 204.354 49.7487 203.475 47.6367C202.597 45.5407 202.158 43.3168 202.158 40.9648L202.158 40.9648C202.158 38.5489 202.597 36.2929 203.475 34.1969C204.354 32.101 205.561 30.261 207.099 28.677C208.652 27.1091 210.456 25.8771 212.51 24.9811C214.565 24.0851 216.777 23.6371 219.146 23.6371L219.146 23.6371C221.499 23.6371 223.703 24.0851 225.757 24.9811C227.812 25.8771 229.616 27.1091 231.169 28.677C232.706 30.261 233.914 32.101 234.793 34.1969C235.671 36.2929 236.11 38.5489 236.11 40.9648L236.11 40.9648C236.11 42.3568 235.961 43.6688 235.663 44.9007L235.663 44.9007ZM219.146 31.509L219.146 31.509C216.652 31.509 214.463 32.429 212.581 34.2689L212.581 34.2689C211.765 35.1009 211.138 36.0209 210.699 37.0289L210.699 37.0289L227.569 37.0289C227.13 36.0209 226.503 35.1009 225.687 34.2689L225.687 34.2689C223.899 32.429 221.718 31.509 219.146 31.509ZM247.381 27.0451L247.381 27.0451C248.573 26.0371 249.93 25.2051 251.452 24.5491C252.973 23.8931 254.699 23.5651 256.628 23.5651L256.628 23.5651L256.628 31.437C254.055 31.437 251.867 32.357 250.063 34.1969L250.063 34.1969C248.275 36.1169 247.381 38.3489 247.381 40.8928L247.381 40.8928L247.381 57.3565L239.663 57.3565L239.663 40.8928L239.663 24.5011L247.381 24.5011L247.381 27.0451ZM278.816 11.4454L278.816 11.4454C281.906 11.4454 284.824 12.0453 287.569 13.2453C290.314 14.4453 292.706 16.0853 294.745 18.1652C296.785 20.2452 298.393 22.6851 299.569 25.4851C300.745 28.269 301.334 31.237 301.334 34.3889L301.334 34.3889C301.334 37.5409 300.745 40.5168 299.569 43.3168C298.393 46.1167 296.785 48.5567 294.745 50.6366C292.706 52.7166 290.314 54.3566 287.569 55.5566C284.824 56.7565 281.906 57.3565 278.816 57.3565L278.816 57.3565L270.84 57.3565L273.993 49.4847L278.816 49.4847C280.793 49.4847 282.683 49.1007 284.487 48.3327C286.291 47.5647 287.898 46.4847 289.31 45.0927L289.31 45.0927C290.675 43.6528 291.734 42.0208 292.487 40.1968C293.24 38.3889 293.616 36.4529 293.616 34.3889L293.616 34.3889C293.616 32.389 293.24 30.469 292.487 28.629C291.734 26.7891 290.675 25.1491 289.31 23.7091L289.31 23.7091C287.898 22.3012 286.291 21.2132 284.487 20.4452C282.683 19.6932 280.793 19.3172 278.816 19.3172L278.816 19.3172L267.899 19.3172L267.899 38.3249L267.899 49.4847L267.899 57.3565L260.181 57.3565L260.181 11.4454L278.816 11.4454ZM327.31 24.5491L335.028 24.5491L335.028 57.3565L327.31 57.3565L327.31 54.8606C326.149 55.8685 324.847 56.6925 323.404 57.3325C321.945 57.9565 320.314 58.2685 318.51 58.2685L318.51 58.2685C316.408 58.2685 314.502 57.8685 312.792 57.0685C311.067 56.2525 309.592 55.1486 308.369 53.7566C307.145 52.3486 306.204 50.7086 305.545 48.8367C304.887 46.9487 304.557 44.9327 304.557 42.7888L304.557 42.7888L304.557 24.5491L312.275 24.5491L312.275 42.7888C312.275 44.8527 313.02 46.6447 314.51 48.1647L314.51 48.1647C315.969 49.6527 317.726 50.3966 319.781 50.3966L319.781 50.3966C321.883 50.3966 323.663 49.6527 325.122 48.1647L325.122 48.1647C326.581 46.6767 327.31 44.8847 327.31 42.7888L327.31 42.7888L327.31 24.5491ZM356.839 23.6371L356.839 23.6371C359.192 23.6371 361.365 24.0851 363.357 24.9811C365.365 25.8771 367.09 27.1091 368.533 28.677C369.992 30.261 371.13 32.101 371.945 34.1969C372.761 36.2929 373.169 38.5489 373.169 40.9648L373.169 40.9648C373.169 43.3168 372.761 45.5407 371.945 47.6367C371.13 49.7487 369.992 51.5886 368.533 53.1566C367.09 54.7246 365.365 55.9565 363.357 56.8525C361.365 57.7645 359.192 58.2205 356.839 58.2205L356.839 58.2205C354.22 58.2205 351.922 57.7165 349.945 56.7085L349.945 56.7085L352.722 49.6767C353.757 50.1246 354.918 50.3486 356.204 50.3486L356.204 50.3486C357.443 50.3486 358.62 50.1167 359.733 49.6527C360.847 49.1887 361.851 48.5007 362.745 47.5887L362.745 47.5887C364.549 45.7487 365.451 43.5408 365.451 40.9648L365.451 40.9648C365.451 38.3409 364.549 36.1089 362.745 34.2689L362.745 34.2689C360.863 32.429 358.683 31.509 356.204 31.509L356.204 31.509C353.632 31.509 351.443 32.429 349.639 34.2689L349.639 34.2689C347.835 36.1089 346.934 38.3409 346.934 40.9648L346.934 40.9648L346.934 54.7406L346.934 70.4843L339.216 70.4843L339.216 24.5011L346.934 24.5011L346.934 27.1171C348.173 26.1091 349.608 25.2771 351.239 24.6211C352.871 23.9651 354.737 23.6371 356.839 23.6371ZM409.263 44.9007L401.145 44.9007L384.298 44.9007C384.722 45.9087 385.341 46.8047 386.157 47.5887L386.157 47.5887C387.067 48.5007 388.078 49.1887 389.192 49.6527C390.306 50.1167 391.482 50.3486 392.722 50.3486L392.722 50.3486C394.478 50.3486 396.047 49.9327 397.427 49.1007L397.427 49.1007L405.451 52.3646C403.914 54.2046 402.055 55.6365 399.875 56.6605C397.678 57.7005 395.294 58.2205 392.722 58.2205L392.722 58.2205C390.369 58.2205 388.165 57.7645 386.11 56.8525C384.039 55.9565 382.235 54.7246 380.698 53.1566C379.161 51.5886 377.953 49.7487 377.075 47.6367C376.196 45.5407 375.757 43.3168 375.757 40.9648L375.757 40.9648C375.757 38.5489 376.196 36.2929 377.075 34.1969C377.953 32.101 379.161 30.261 380.698 28.677C382.235 27.1091 384.039 25.8771 386.11 24.9811C388.165 24.0851 390.369 23.6371 392.722 23.6371L392.722 23.6371C395.09 23.6371 397.302 24.0851 399.357 24.9811C401.412 25.8771 403.208 27.1091 404.745 28.677C406.298 30.261 407.514 32.101 408.392 34.1969C409.271 36.2929 409.71 38.5489 409.71 40.9648L409.71 40.9648C409.71 42.3568 409.561 43.6688 409.263 44.9007L409.263 44.9007ZM392.722 31.509L392.722 31.509C390.243 31.509 388.055 32.429 386.157 34.2689L386.157 34.2689C385.341 35.1009 384.722 36.0209 384.298 37.0289L384.298 37.0289L401.145 37.0289C400.722 36.0209 400.102 35.1009 399.286 34.2689L399.286 34.2689C397.482 32.429 395.294 31.509 392.722 31.509ZM420.957 27.0451L420.957 27.0451C422.165 26.0371 423.529 25.2051 425.051 24.5491C426.572 23.8931 428.298 23.5651 430.227 23.5651L430.227 23.5651L430.227 31.437C427.655 31.437 425.467 32.357 423.663 34.1969L423.663 34.1969C421.859 36.1169 420.957 38.3489 420.957 40.8928L420.957 40.8928L420.957 57.3565L413.239 57.3565L413.239 40.8928L413.239 24.5011L420.957 24.5011L420.957 27.0451ZM452.416 11.4454L452.416 11.4454C455.506 11.4454 458.423 12.0453 461.168 13.2453C463.914 14.4453 466.298 16.0853 468.321 18.1652C470.361 20.2452 471.968 22.6851 473.145 25.4851C474.337 28.269 474.933 31.237 474.933 34.3889L474.933 34.3889C474.933 37.5409 474.337 40.5168 473.145 43.3168C471.968 46.1167 470.361 48.5567 468.321 50.6366C466.298 52.7166 463.914 54.3566 461.168 55.5566C458.423 56.7565 455.506 57.3565 452.416 57.3565L452.416 57.3565L444.439 57.3565L447.592 49.4847L452.416 49.4847C454.392 49.4847 456.274 49.1007 458.063 48.3327C459.866 47.5647 461.474 46.4847 462.886 45.0927L462.886 45.0927C464.266 43.6528 465.333 42.0208 466.086 40.1968C466.839 38.3889 467.215 36.4529 467.215 34.3889L467.215 34.3889C467.215 32.389 466.839 30.469 466.086 28.629C465.333 26.7891 464.266 25.1491 462.886 23.7091L462.886 23.7091C461.474 22.3012 459.866 21.2132 458.063 20.4452C456.274 19.6932 454.392 19.3172 452.416 19.3172L452.416 19.3172L441.474 19.3172L441.474 38.3249L441.474 49.4847L441.474 57.3565L433.757 57.3565L433.757 11.4454L452.416 11.4454ZM509.709 32.829L509.709 32.829C511.435 34.0449 512.807 35.6129 513.827 37.5329C514.862 39.4688 515.38 41.5728 515.38 43.8448L515.38 43.8448L515.38 43.9648C515.38 45.8047 515.035 47.5487 514.345 49.1967C513.67 50.8286 512.729 52.2446 511.521 53.4446C510.313 54.6606 508.917 55.6126 507.333 56.3005C505.749 57.0045 504.055 57.3565 502.251 57.3565L502.251 57.3565L489.451 57.3565L492.557 49.4847L502.251 49.4847C503.757 49.4847 505.035 48.9487 506.086 47.8767C507.137 46.8047 507.662 45.5007 507.662 43.9648L507.662 43.9648L507.662 43.8448C507.662 42.3088 507.137 41.0048 506.086 39.9328C505.035 38.8609 503.757 38.3249 502.251 38.3249L502.251 38.3249L499.098 38.3249L486.51 38.3249L486.51 49.4847L486.51 57.3565L478.792 57.3565L478.792 38.3249L478.792 30.453L478.792 11.4454L499.098 11.4454C500.902 11.4454 502.611 11.7893 504.227 12.4773C505.827 13.1813 507.215 14.1493 508.392 15.3813C509.584 16.5973 510.517 18.0132 511.192 19.6292C511.882 21.2452 512.227 22.9731 512.227 24.8131L512.227 24.8131L512.227 24.9571C512.227 26.4451 512 27.8531 511.545 29.181C511.106 30.509 510.494 31.725 509.709 32.829ZM504.509 24.9571L504.509 24.8131C504.509 23.2931 503.984 21.9972 502.933 20.9252C501.882 19.8532 500.604 19.3172 499.098 19.3172L499.098 19.3172L486.51 19.3172L486.51 30.453L499.098 30.453C500.604 30.453 501.882 29.917 502.933 28.845C503.984 27.7731 504.509 26.4771 504.509 24.9571L504.509 24.9571Z" fill="#29252e" fill-rule="evenodd" opacity="1" stroke="none"/>
</g>
</g>
</svg>
