<svg xmlns="http://www.w3.org/2000/svg" width="5565" height="1079" viewBox="0 0 5565 1079" version="1.1"><path d="M 1375.500 318.591 C 1353.504 321.731, 1337.802 326.074, 1323.500 332.975 C 1290.325 348.980, 1267.636 377.259, 1259.065 413.281 C 1255.311 429.058, 1254.107 449.268, 1256.061 463.678 C 1261.365 502.783, 1289.141 535.084, 1338.979 560.104 C 1353.356 567.322, 1384.755 579.171, 1407.500 585.962 C 1437.434 594.900, 1454.531 602.081, 1466.105 610.577 C 1477.372 618.848, 1484.698 631.015, 1485.715 643.144 C 1487.404 663.290, 1476.599 681.882, 1457.500 691.691 C 1437.984 701.715, 1418.292 703.947, 1390.057 699.333 C 1367.797 695.696, 1346.417 685.684, 1325.580 669.138 L 1318.660 663.643 1293.183 689.499 L 1267.707 715.354 1270.603 717.777 C 1276.663 722.846, 1297.860 736.269, 1307.966 741.436 C 1344.917 760.331, 1372.164 767.637, 1413 769.601 C 1444.110 771.097, 1472.309 765.610, 1495.918 753.468 C 1529.015 736.445, 1550.405 707.687, 1558.566 669.240 C 1560.797 658.733, 1561.642 631.279, 1560.041 621.353 C 1553.396 580.159, 1515.722 543.481, 1452.179 516.340 C 1439.330 510.852, 1424.844 506.049, 1398.500 498.542 C 1371.413 490.824, 1357.452 484.113, 1345.784 473.203 C 1335.528 463.613, 1331 453.771, 1331 441.068 C 1331 424.597, 1339.111 409.900, 1353.766 399.817 C 1368.325 389.800, 1393.102 384.559, 1414.611 386.947 C 1442.410 390.033, 1465.112 400.594, 1485 419.693 L 1489.500 424.014 1500.500 412.725 C 1530.035 382.416, 1541 370.854, 1541 370.023 C 1541 368.938, 1526.263 357.077, 1518.204 351.677 C 1510.032 346.200, 1490.704 337.033, 1474.829 331.105 C 1449.849 321.777, 1433.877 319.037, 1401.500 318.526 C 1388.850 318.326, 1377.150 318.356, 1375.500 318.591 M 2811.248 544.250 L 2811.500 761.500 2848 761.500 L 2884.500 761.500 2884.753 581.668 L 2885.005 401.836 2944.253 402.290 C 3009.678 402.791, 3010.958 402.898, 3030.651 409.484 C 3076.101 424.683, 3108.677 460.033, 3122.360 509 C 3125.448 520.051, 3126.227 529.334, 3125.720 549.076 C 3125.237 567.915, 3124.741 571.556, 3120.692 586 C 3115.709 603.774, 3102.254 627.466, 3088.820 642.121 C 3075.387 656.773, 3053.402 671.085, 3033 678.458 C 3016.029 684.590, 3011.263 685.200, 2975.007 685.876 L 2941.514 686.500 2930.346 714.328 C 2924.204 729.633, 2918.913 742.420, 2918.589 742.744 C 2918.265 743.068, 2918 743.920, 2918 744.637 C 2918 745.354, 2916.910 748.324, 2915.578 751.236 C 2914.246 754.149, 2912.847 757.762, 2912.469 759.266 L 2911.783 762 2950.692 762 C 2994.337 762, 3010.798 761.033, 3029 757.401 C 3077.816 747.658, 3123.553 719.094, 3154.538 679 C 3173.823 654.044, 3188.565 622.752, 3195.054 593 C 3198.886 575.425, 3199.936 565.026, 3199.950 544.500 C 3199.971 512.965, 3195.981 491.127, 3185.242 464 C 3164.558 411.748, 3127.001 371.257, 3077 347.302 C 3056.800 337.624, 3034.260 331.157, 3011.506 328.511 C 3000.801 327.266, 2982 327, 2904.754 327 L 2810.995 327 2811.248 544.250 M 4450 544.455 L 4450 762 4486.500 762 L 4523 762 4523 581.918 L 4523 401.837 4582.750 402.290 C 4648.873 402.791, 4649.894 402.876, 4669.951 409.584 C 4699.469 419.456, 4725.355 439.570, 4742.453 465.921 C 4770.297 508.834, 4773.160 565.571, 4749.723 610 C 4730.081 647.235, 4699.782 671.372, 4659 682.272 L 4647.500 685.345 4613.919 685.761 L 4580.337 686.178 4579.054 689.839 C 4578.348 691.853, 4577.203 694.850, 4576.511 696.500 C 4575.818 698.150, 4573.571 703.775, 4571.516 709 C 4569.462 714.225, 4567.391 719.400, 4566.915 720.500 C 4563.319 728.809, 4551 760.124, 4551 760.957 C 4551 762.347, 4623.753 762.356, 4642 760.969 C 4692.225 757.150, 4739.569 735.332, 4774.702 699.814 C 4794.010 680.294, 4805.149 664.698, 4816.706 641 C 4826.332 621.263, 4830.577 608.943, 4835.262 587.146 C 4838.352 572.770, 4838.411 571.992, 4838.455 545 C 4838.501 516.984, 4838.356 515.406, 4833.811 494.500 C 4829.415 474.283, 4814.838 440.789, 4802.473 422.500 C 4768.186 371.783, 4718.647 339.743, 4658.429 329.341 C 4649.608 327.817, 4637.423 327.585, 4549.250 327.268 L 4450 326.910 4450 544.455 M 4875 544.512 L 4875 762.025 4911.750 761.762 L 4948.500 761.500 4948.755 671.750 L 4949.011 582 5026.295 582 C 5111.307 582, 5109.352 581.873, 5121.200 588.187 C 5127.695 591.649, 5137.294 601.253, 5141.145 608.143 C 5146.786 618.237, 5148.914 632.481, 5146.577 644.500 C 5143.187 661.930, 5131.990 675.859, 5115.786 682.805 L 5109.500 685.500 5057.203 685.792 C 5008.934 686.061, 5004.860 686.216, 5004.322 687.792 C 5003.402 690.491, 4996.917 707.288, 4995.941 709.500 C 4993.069 716.015, 4976 760.031, 4976 760.924 C 4976 762.329, 5095.573 762.375, 5109 760.975 C 5157.393 755.928, 5199.101 722.278, 5214.326 676 C 5216.226 670.225, 5218.392 662.575, 5219.140 659 C 5220.963 650.288, 5220.959 618.854, 5219.135 609.500 C 5213.148 578.809, 5195.975 551.124, 5170.591 531.241 C 5167.963 529.182, 5167.842 528.827, 5169.231 527.241 C 5174.854 520.820, 5185.138 497.440, 5188.470 483.500 C 5189.737 478.200, 5191.983 459.660, 5191.984 454.500 C 5191.984 447.724, 5189.407 428.860, 5187.479 421.527 C 5185.287 413.188, 5179.343 398.804, 5174.657 390.500 C 5159.474 363.595, 5133.808 342.414, 5104.969 332.990 C 5086.911 327.089, 5084.989 327, 4975.122 327 L 4875 327 4875 544.512 M 4949 454.506 L 4949 507.121 5012.750 506.776 C 5075.543 506.437, 5076.600 506.399, 5083.155 504.205 C 5094.210 500.506, 5105.489 490.927, 5111.632 480.019 C 5115.037 473.975, 5118 462.100, 5118 454.500 C 5118 446.812, 5115.027 435.007, 5111.523 428.785 C 5105.448 417.997, 5094.691 408.954, 5083 404.808 C 5076.512 402.508, 5076.386 402.503, 5012.750 402.197 L 4949 401.892 4949 454.506 M 884.482 531.500 C 884.482 590.900, 884.603 615.053, 884.750 585.173 C 884.897 555.294, 884.897 506.694, 884.750 477.173 C 884.603 447.653, 884.482 472.100, 884.482 531.500 M 447.238 549.191 C 447.107 608.971, 447.337 658.091, 447.750 658.346 C 448.429 658.765, 448.423 582.088, 447.737 479.500 C 447.594 458.050, 447.369 489.411, 447.238 549.191 M 853.482 549.500 C 853.482 608.900, 853.603 633.053, 853.750 603.173 C 853.897 573.294, 853.897 524.694, 853.750 495.173 C 853.603 465.653, 853.482 490.100, 853.482 549.500 M 2067.500 443.016 C 2043.748 445.672, 2019.702 454.936, 1999 469.407 L 1992.500 473.951 1992.219 461.963 L 1991.938 449.975 1955.219 450.238 L 1918.500 450.500 1918.500 668 L 1918.500 885.500 1955.250 885.762 L 1992 886.025 1992.020 742.262 C 1992.032 653.441, 1992.415 595.901, 1993.023 591.700 C 1998.059 556.867, 2026.281 526.600, 2060.271 519.579 C 2072.059 517.144, 2088.714 517.485, 2100.192 520.397 C 2133.723 528.903, 2160.183 557.949, 2164.963 591.500 C 2166.992 605.741, 2165.821 621.776, 2161.859 634 C 2153.186 660.759, 2130.903 682.394, 2103 691.147 C 2096.323 693.242, 2093.635 693.495, 2078.500 693.455 C 2062.886 693.413, 2060.863 693.196, 2053.689 690.791 L 2045.878 688.174 2044.955 690.337 C 2041.242 699.034, 2020 754.199, 2020 755.143 C 2020 756.075, 2033.065 761.394, 2041.500 763.895 C 2069.413 772.172, 2105.124 771.560, 2132.767 762.330 C 2155.149 754.857, 2174.239 743.005, 2191.096 726.117 C 2206.344 710.842, 2216.582 696.292, 2224.174 679.108 C 2225.780 675.473, 2227.493 671.600, 2227.981 670.500 C 2230.115 665.694, 2234.038 652.897, 2235.491 646 C 2238.786 630.363, 2239.301 624.957, 2239.301 606 C 2239.301 587.043, 2238.786 581.637, 2235.491 566 C 2229.671 538.378, 2212.133 505.827, 2192.608 486.404 C 2170.797 464.708, 2141.959 449.690, 2112.013 444.433 C 2101.404 442.571, 2078.111 441.829, 2067.500 443.016 M 2406.589 443.100 C 2370.596 446.894, 2335.628 463.976, 2309.724 490.420 C 2303.736 496.532, 2289.167 515.339, 2286.810 520 C 2286.114 521.375, 2284.606 524.075, 2283.457 526 C 2279.649 532.385, 2272.957 548.787, 2270.113 558.713 C 2265.659 574.251, 2265.209 576.670, 2263.887 592.230 C 2262.598 607.400, 2263.637 628.085, 2266.236 639 C 2274.752 674.769, 2289.864 702.249, 2313.381 724.732 C 2360.878 770.139, 2428.941 782.420, 2488.499 756.328 C 2499.709 751.417, 2513.101 743.285, 2522.500 735.681 C 2530.885 728.898, 2544 715.868, 2544 714.321 C 2544 713.824, 2527.085 706.529, 2506.412 698.110 L 2468.824 682.802 2460.907 686.421 C 2447.574 692.516, 2437.946 694.289, 2421 693.771 C 2407.990 693.373, 2405.524 692.998, 2397 690.122 C 2384.778 685.998, 2374.093 679.532, 2364.753 670.610 C 2356.321 662.556, 2352.674 658.005, 2348.041 649.754 L 2344.814 644.008 2462.579 643.754 L 2580.345 643.500 2582.244 635 C 2585.057 622.402, 2584.973 590.612, 2582.087 576 C 2575.507 542.679, 2561.147 514.508, 2539.085 491.637 C 2504.049 455.318, 2456.371 437.852, 2406.589 443.100 M 2753.597 443.607 C 2734.113 447.125, 2711.116 457.797, 2695.250 470.682 L 2691 474.134 2691 462.055 L 2691 449.975 2654.250 450.238 L 2617.500 450.500 2617.500 606 L 2617.500 761.500 2654.218 761.762 L 2690.936 762.025 2691.264 676.762 C 2691.625 582.765, 2691.382 586.551, 2698.079 570.465 C 2706.340 550.621, 2722.403 533.884, 2742.217 524.474 C 2750.216 520.675, 2765.358 517.035, 2773.250 517.013 L 2778 517 2778 479.500 L 2778 442 2769.750 442.090 C 2765.213 442.139, 2757.944 442.822, 2753.597 443.607 M 3706.015 443.079 C 3682.848 445.694, 3659.715 454.510, 3639.441 468.449 L 3631.500 473.909 3631.219 461.942 L 3630.938 449.975 3594.219 450.238 L 3557.500 450.500 3557.500 668 L 3557.500 885.500 3594.250 885.762 L 3631 886.025 3631.020 742.262 C 3631.032 660.766, 3631.436 595.760, 3631.955 592.174 C 3634.536 574.326, 3643.261 556.976, 3656.286 543.793 C 3674.090 525.773, 3692.778 517.991, 3718.208 518.007 C 3744.863 518.024, 3767.710 528.958, 3785.057 550 C 3795.817 563.053, 3801.360 575.598, 3803.922 592.692 C 3809.668 631.033, 3790.678 668.036, 3756.395 685.301 C 3742.629 692.234, 3736.562 693.505, 3717.500 693.455 C 3701.915 693.413, 3699.854 693.193, 3692.744 690.809 C 3688.479 689.379, 3684.818 688.499, 3684.610 688.854 C 3684.401 689.210, 3683.097 692.425, 3681.712 696 C 3671.862 721.424, 3659.805 751.787, 3658.985 753.234 C 3658.164 754.684, 3658.782 755.361, 3662.752 757.365 C 3669.618 760.831, 3685.168 765.607, 3696.067 767.598 C 3710.685 770.267, 3738.208 770.060, 3752.763 767.171 C 3802.232 757.350, 3841.983 725.327, 3863.450 678 C 3883.477 633.847, 3883.771 580.438, 3864.232 536 C 3842.322 486.173, 3801.955 453.570, 3750.891 444.459 C 3740.200 442.552, 3717.003 441.838, 3706.015 443.079 M 4045.589 443.100 C 3992.209 448.727, 3944.922 481.694, 3920.226 530.500 C 3913.978 542.846, 3909.824 553.662, 3907.485 563.668 C 3903.299 581.574, 3902.738 586.564, 3902.723 606 C 3902.706 627.500, 3904.144 637.476, 3910.003 656.510 C 3913.453 667.718, 3921.815 685.555, 3928.625 696.231 C 3935.095 706.375, 3946.903 720.142, 3956.703 728.968 C 4004.639 772.140, 4074.532 782.063, 4132.511 753.929 C 4143.784 748.459, 4153.203 742.399, 4163.518 733.979 C 4170.548 728.241, 4183 715.585, 4183 714.178 C 4183 713.766, 4166.068 706.547, 4145.372 698.134 L 4107.745 682.838 4099.868 686.439 C 4086.575 692.516, 4076.934 694.288, 4060 693.771 C 4046.990 693.373, 4044.524 692.998, 4036 690.122 C 4030.775 688.359, 4022.939 684.798, 4018.586 682.208 C 4007.547 675.641, 3993.526 661.709, 3988.186 652 L 3984.061 644.500 4101.769 644 L 4219.477 643.500 4221.328 634.500 C 4223.896 622.014, 4224.064 592.366, 4221.644 579 C 4219.888 569.302, 4215.687 553.101, 4213.995 549.500 C 4213.478 548.400, 4212.107 545.025, 4210.948 542 C 4205.235 527.089, 4191.452 505.874, 4178.773 492.477 C 4143.975 455.708, 4095.715 437.816, 4045.589 443.100 M 4392.597 443.607 C 4373.130 447.122, 4350.117 457.797, 4334.282 470.656 L 4330.064 474.081 4329.782 462.291 L 4329.500 450.500 4292.750 450.238 L 4256 449.975 4256 606 L 4256 762.025 4292.750 761.762 L 4329.500 761.500 4330.023 675.500 C 4330.497 597.574, 4330.711 588.937, 4332.294 583.500 C 4335.054 574.021, 4338.042 567.030, 4342.431 559.779 C 4357.746 534.483, 4381.199 519.743, 4410.265 517.146 L 4417.500 516.500 4417.762 479.250 L 4418.024 442 4409.262 442.090 C 4404.443 442.139, 4396.944 442.822, 4392.597 443.607 M 1591.009 542.238 C 1591.017 634.314, 1591.382 645.513, 1594.888 661.500 C 1607.685 719.847, 1650.381 761.648, 1704.714 769.023 C 1717.536 770.764, 1740.941 769.792, 1751.863 767.065 C 1768.021 763.030, 1784.898 754.796, 1799 744.069 L 1805.500 739.125 1805.782 750.575 L 1806.064 762.025 1842.782 761.762 L 1879.500 761.500 1879.753 606.250 L 1880.006 451 1843.046 451 L 1806.086 451 1805.781 544.750 L 1805.476 638.500 1802.650 646.342 C 1798.054 659.096, 1794.111 665.091, 1783.350 675.695 C 1758.564 700.116, 1716.659 701.289, 1690.760 678.287 C 1679.081 667.914, 1669.708 653.516, 1666.813 641.500 C 1665.941 637.878, 1665.456 610.998, 1665.054 544 L 1664.500 451.500 1627.750 451.238 L 1591 450.975 1591.009 542.238 M 3230.272 548.250 C 3230.649 651.594, 3230.554 649.479, 3235.676 668.500 C 3242.850 695.139, 3254.151 715.219, 3271.975 733 C 3292.641 753.616, 3315.391 765.034, 3343.857 769.075 C 3356.909 770.928, 3380.299 769.781, 3392.051 766.711 C 3408.559 762.399, 3424.341 754.502, 3438.500 743.469 L 3444.500 738.794 3444.782 750.409 L 3445.064 762.025 3481.782 761.762 L 3518.500 761.500 3518.753 606.250 L 3519.006 451 3482.038 451 L 3445.069 451 3444.758 543.750 C 3444.453 634.658, 3444.405 636.629, 3442.356 643 C 3438.025 656.466, 3432.914 665.086, 3423.936 674.064 C 3410.797 687.203, 3397.194 693.361, 3378.500 694.633 C 3345.088 696.907, 3313.912 673.788, 3306.025 640.887 C 3304.087 632.805, 3304.014 629.200, 3304.007 541.750 L 3304 451 3266.958 451 L 3229.917 451 3230.272 548.250 M 2407.075 519.087 C 2384.394 523.537, 2361.147 540.200, 2349.297 560.500 C 2347.692 563.250, 2346.083 566.288, 2345.721 567.250 C 2345.098 568.907, 2349.243 569, 2424.117 569 L 2503.172 569 2499.443 562.250 C 2487.457 540.552, 2465.929 524.339, 2442.792 519.584 C 2434.466 517.873, 2414.668 517.598, 2407.075 519.087 M 4044.500 519.424 C 4031.547 522.406, 4021.966 526.960, 4010.399 535.630 C 3999.603 543.723, 3989.706 555.587, 3985.645 565.306 L 3984.102 569 4062.551 569 C 4116.658 569, 4141 568.674, 4141 567.950 C 4141 564.492, 4131.927 551.186, 4124.410 543.619 C 4113.461 532.598, 4102.870 525.996, 4088.792 521.416 C 4081.601 519.077, 4078.509 518.674, 4065.500 518.380 C 4055.188 518.148, 4048.625 518.474, 4044.500 519.424 M 884.461 676.250 C 884.199 676.938, 884.101 725.875, 884.243 785 L 884.500 892.500 885 783.750 C 885.275 723.937, 885.373 675, 885.219 675 C 885.064 675, 884.723 675.563, 884.461 676.250 M 447.482 802 C 447.482 861.675, 447.603 886.087, 447.750 856.250 C 447.897 826.412, 447.897 777.587, 447.750 747.750 C 447.603 717.912, 447.482 742.325, 447.482 802 M 852.751 763.250 C 852.889 801.337, 853.120 850.050, 853.263 871.500 C 853.407 892.950, 853.631 861.788, 853.762 802.250 C 853.893 742.712, 853.663 694, 853.250 694 C 852.837 694, 852.613 725.162, 852.751 763.250" stroke="none" fill="#1c1c24" fill-rule="evenodd"/><path d="M 556.742 107.759 C 505.725 137.252, 464.325 161.723, 464.742 162.137 C 466.369 163.754, 649.317 269, 650.500 269 C 651.683 269, 834.631 163.754, 836.258 162.137 C 836.958 161.442, 651.869 53.917, 650.231 54.067 C 649.829 54.103, 607.759 78.265, 556.742 107.759 M 338.281 233.782 C 287.010 263.327, 245.061 287.725, 245.061 288 C 245.061 288.275, 287.073 312.692, 338.421 342.260 L 431.780 396.021 524.889 342.260 C 576.099 312.692, 617.998 288.245, 617.999 287.934 C 618 287.466, 434.127 180.967, 432.135 180.282 C 431.786 180.161, 389.551 204.236, 338.281 233.782 M 775.750 233.770 C 724.737 263.251, 683 287.627, 683.001 287.936 C 683.002 288.246, 724.902 312.693, 776.113 342.262 L 869.224 396.023 962.112 342.382 C 1013.200 312.879, 1055 288.407, 1055 288 C 1055 287.317, 869.739 179.897, 868.882 180.083 C 868.672 180.129, 826.763 204.288, 775.750 233.770 M 557.290 359.814 C 506.024 389.341, 464.061 413.753, 464.040 414.063 C 464.018 414.372, 505.922 438.821, 557.160 468.394 C 627.156 508.793, 650.745 521.956, 652.029 521.331 C 657.277 518.778, 836.994 414.539, 836.961 414.067 C 836.940 413.755, 797.228 390.641, 748.711 362.702 C 700.195 334.763, 658.250 310.604, 655.500 309.015 L 650.500 306.127 557.290 359.814 M 229.019 423.750 L 229.037 531.500 321.686 585 C 372.643 614.425, 414.710 638.650, 415.168 638.833 C 415.625 639.017, 416 590.624, 416 531.294 L 416 423.420 323.020 369.710 C 271.881 340.170, 229.806 316, 229.520 316 C 229.234 316, 229.008 364.487, 229.019 423.750 M 977.750 369.692 L 885 423.295 885 531.239 L 885 639.182 890.919 635.841 C 894.175 634.004, 936.232 609.775, 984.380 582 L 1071.921 531.500 1071.960 423.750 C 1071.982 364.487, 1071.662 316.020, 1071.250 316.045 C 1070.838 316.069, 1028.763 340.210, 977.750 369.692 M 448.246 549.972 L 448.500 658.148 541.500 711.898 L 634.500 765.648 634.755 658.114 C 634.956 572.889, 634.749 550.346, 633.755 549.451 C 633.065 548.830, 592.623 525.319, 543.883 497.206 C 495.144 469.092, 453.630 445.124, 451.629 443.944 L 447.991 441.797 448.246 549.972 M 759.500 495.768 L 666.500 549.503 666.246 657.360 C 666.021 752.295, 666.169 765.149, 667.473 764.649 C 668.287 764.336, 710.364 740.166, 760.977 710.937 L 853 657.794 853 549.897 C 853 490.554, 852.888 442.008, 852.750 442.017 C 852.612 442.026, 810.650 466.214, 759.500 495.768 M 229.246 676.003 L 229.500 784.174 322.500 837.887 L 415.500 891.601 415.755 784.105 C 415.894 724.982, 415.669 676.281, 415.255 675.879 C 414.840 675.478, 374.225 651.900, 325 623.484 C 275.775 595.068, 234.035 570.921, 232.246 569.825 L 228.991 567.831 229.246 676.003 M 978.500 621.865 L 885.500 675.632 885.246 783.718 L 884.991 891.804 978.496 837.784 L 1072 783.765 1072 675.882 C 1072 616.547, 1071.888 568.022, 1071.750 568.049 C 1071.612 568.076, 1029.650 592.293, 978.500 621.865 M 448.021 802.750 L 448.041 910.500 540.668 964 C 591.612 993.425, 633.678 1017.650, 634.147 1017.833 C 634.616 1018.017, 635 969.761, 635 910.598 L 635 803.028 631.250 800.587 C 626.645 797.588, 449.007 695, 448.420 695 C 448.189 695, 448.009 743.487, 448.021 802.750 M 758.750 748.751 L 666 802.388 666 910.285 L 666 1018.182 671.905 1014.841 C 675.153 1013.004, 717.213 988.775, 765.371 961 L 852.932 910.500 852.966 802.750 C 852.985 743.487, 852.663 695.026, 852.250 695.057 C 851.837 695.088, 809.763 719.250, 758.750 748.751" stroke="none" fill="#732bf3" fill-rule="evenodd"/></svg>