<?xml version="1.0" encoding="UTF-8" standalone="no"?>
<!DOCTYPE svg PUBLIC "-//W3C//DTD SVG 1.1//EN" "http://www.w3.org/Graphics/SVG/1.1/DTD/svg11.dtd">
<!-- Created with Vectornator (http://vectornator.io/) -->
<svg height="100%" stroke-miterlimit="10" style="fill-rule:nonzero;clip-rule:evenodd;stroke-linecap:round;stroke-linejoin:round;" version="1.1" viewBox="0 0 1680 420" width="100%" xml:space="preserve" xmlns="http://www.w3.org/2000/svg" xmlns:vectornator="http://vectornator.io" xmlns:xlink="http://www.w3.org/1999/xlink">
<defs/>
<g id="Layer-1" vectornator:layerName="Layer 1">
<g opacity="1" vectornator:layerName="g">
<g opacity="1" vectornator:layerName="g">
<path d="M49.2235 76.2212L297.287 76.2212L297.287 76.2212L297.287 329.344L297.287 329.344L49.2235 329.344L49.2235 329.344L49.2235 76.2212L49.2235 76.2212Z" fill="#444444" fill-opacity="0" fill-rule="nonzero" opacity="1" stroke="none" vectornator:layerName="rect"/>
<path d="M297.287 164.381L297.287 76.4005L154.213 76.4005C115.919 76.4005 84.5062 107.971 83.7533 146.855L83.7334 146.855L83.7334 186.707L100.915 186.707L100.915 146.855L100.935 146.855C101.688 117.642 125.403 93.9262 154.213 93.9262L280.091 93.9262L280.091 146.855L173.703 146.855C163.488 146.855 154.077 152.44 154.077 164.381L297.287 164.381ZM49.2235 241.185L49.2235 329.168L192.284 329.168C230.578 329.168 261.991 297.598 262.744 258.714L262.763 258.714L262.763 218.859L245.581 218.859L245.581 258.71L245.552 258.71C244.812 287.923 221.093 311.656 192.284 311.656L66.4055 311.656L66.4055 258.71L172.794 258.71C183.008 258.71 192.42 253.126 192.42 241.185L49.2235 241.185ZM83.5875 276.24L190.338 276.24C205.553 276.24 211.015 266.741 211.015 252.097L211.015 182.367L297.287 182.367L297.287 260.287C297.287 292.923 275.684 320.654 246.344 329.344C265.95 313.405 280.105 289.144 280.105 260.287L280.105 199.892L228.197 199.892L228.197 252.097C228.197 275.776 214.839 294.114 190.338 294.114L83.5875 294.114L83.5875 276.24ZM262.909 129.329L156.159 129.329C140.944 129.329 135.482 138.828 135.482 153.468L135.482 223.202L49.2235 223.202L49.2235 145.279C49.2235 112.646 70.8262 84.9147 100.166 76.2212C80.5597 92.1604 66.4055 116.421 66.4055 145.279L66.4055 205.673L118.3 205.673L118.3 153.468C118.3 129.789 131.658 111.452 156.159 111.452L262.909 111.452L262.909 129.329Z" fill="#4527a4" fill-rule="evenodd" opacity="1" stroke="none" vectornator:layerName="path"/>
</g>
<path d="M450.48 214.568L450.48 214.568C450.48 221.295 449.422 227.37 447.306 232.792C445.14 238.214 442.064 242.807 438.077 246.573C434.14 250.388 429.341 253.325 423.681 255.383C418.021 257.442 411.696 258.471 404.707 258.471L404.707 258.471C393.534 258.471 383.567 256.638 374.806 252.973C366.095 249.359 358.909 245.217 353.249 240.548L353.249 240.548L370.008 223.454C374.437 227.571 379.408 230.733 384.921 232.942L384.921 232.942C388.268 234.298 391.418 235.176 394.371 235.578C397.373 235.98 399.81 236.181 401.68 236.181L401.68 236.181C405.175 236.181 408.374 235.754 411.278 234.9C414.132 233.997 416.643 232.792 418.808 231.286L418.808 231.286C423.385 227.822 425.674 223.278 425.674 217.655L425.674 217.655C425.674 214.242 424.468 211.154 422.057 208.393L422.057 208.393C420.186 206.234 417.75 204.452 414.748 203.046L414.748 203.046C412.336 201.691 409.801 200.586 407.143 199.733C404.436 198.93 402 198.177 399.834 197.474L399.834 197.474C399.194 197.223 398.604 197.072 398.062 197.022C397.521 196.922 397.029 196.746 396.586 196.495L396.586 196.495C396.34 196.495 395.946 196.344 395.405 196.043L395.405 196.043C392.599 195.24 388.539 193.809 383.223 191.751C377.907 189.692 372.616 186.881 367.35 183.316L367.35 183.316C355.094 174.933 348.967 164.641 348.967 152.441L348.967 152.441C348.967 144.359 350.345 137.531 353.101 131.959C355.857 126.386 359.475 121.843 363.954 118.328C368.383 114.864 373.33 112.379 378.793 110.873C384.207 109.367 389.548 108.614 394.814 108.614L394.814 108.614C404.51 108.614 412.656 109.769 419.251 112.078C425.846 114.387 431.088 116.722 434.977 119.081L434.977 119.081C436.995 120.336 438.717 121.541 440.145 122.696C441.523 123.851 442.753 124.905 443.836 125.859L443.836 125.859L426.708 143.555C423.066 139.84 419.35 137.029 415.56 135.121L415.56 135.121C409.949 132.41 404.042 131.055 397.841 131.055L397.841 131.055C395.134 131.055 392.451 131.381 389.794 132.034C387.087 132.737 384.724 133.64 382.706 134.745L382.706 134.745C376.8 138.46 373.847 143.33 373.847 149.354L373.847 149.354C373.847 153.069 375.053 156.232 377.464 158.842L377.464 158.842C379.187 160.901 381.599 162.733 384.699 164.34L384.699 164.34C387.259 165.745 389.966 166.85 392.821 167.653C395.626 168.456 398.235 169.209 400.646 169.912L400.646 169.912L403.083 170.515C403.772 170.816 405.051 171.243 406.922 171.795C408.792 172.347 411.007 173.175 413.566 174.28C416.126 175.334 418.907 176.614 421.909 178.12C424.96 179.677 427.963 181.484 430.916 183.542L430.916 183.542C443.959 192.278 450.48 202.62 450.48 214.568ZM532.061 152.818L556.277 152.818L556.277 255.76L532.061 255.76L532.061 247.928C528.419 251.091 524.309 253.676 519.731 255.684C515.154 257.642 510.035 258.621 504.375 258.621L504.375 258.621C497.78 258.621 491.8 257.366 486.435 254.856C481.07 252.296 476.468 248.832 472.629 244.464C468.79 240.046 465.812 234.9 463.696 229.027C461.629 223.103 460.595 216.777 460.595 210.05L460.595 210.05L460.595 152.818L484.811 152.818L484.811 210.05C484.811 216.526 487.173 222.149 491.898 226.918L491.898 226.918C496.476 231.587 501.988 233.921 508.436 233.921L508.436 233.921C515.031 233.921 520.617 231.587 525.195 226.918L525.195 226.918C529.772 222.249 532.061 216.626 532.061 210.05L532.061 210.05L532.061 152.818ZM624.642 149.956L624.642 149.956C632.074 149.956 638.915 151.362 645.166 154.173C651.417 156.985 656.831 160.85 661.408 165.77C665.985 170.741 669.554 176.514 672.113 183.091C674.673 189.667 675.952 196.746 675.952 204.327L675.952 204.327C675.952 211.706 674.673 218.685 672.113 225.261C669.554 231.888 665.985 237.661 661.408 242.581C656.831 247.501 651.417 251.367 645.166 254.178C638.915 257.04 632.074 258.471 624.642 258.471L624.642 258.471C616.471 258.471 609.285 256.889 603.084 253.727L603.084 253.727L611.722 231.662C614.97 233.068 618.612 233.771 622.648 233.771L622.648 233.771C626.536 233.771 630.228 233.043 633.722 231.587C637.217 230.131 640.392 227.972 643.246 225.111L643.246 225.111C648.906 219.337 651.737 212.409 651.737 204.327L651.737 204.327C651.737 196.093 648.906 189.09 643.246 183.316L643.246 183.316C637.291 177.543 630.425 174.656 622.648 174.656L622.648 174.656C614.576 174.656 607.71 177.543 602.05 183.316L602.05 183.316C596.39 189.09 593.56 196.093 593.56 204.327L593.56 204.327L593.56 247.552L593.56 296.952L569.344 296.952L569.344 152.667L593.56 152.667L593.56 160.876C597.497 157.713 602.001 155.102 607.07 153.044C612.189 150.986 618.046 149.956 624.642 149.956ZM789.131 216.677L763.734 216.677L710.799 216.677C712.177 219.839 714.146 222.651 716.705 225.111L716.705 225.111C719.511 227.972 722.661 230.131 726.156 231.587C729.65 233.043 733.366 233.771 737.304 233.771L737.304 233.771C742.816 233.771 747.713 232.465 751.995 229.855L751.995 229.855L777.245 240.096C772.372 245.87 766.515 250.363 759.674 253.576C752.832 256.839 745.375 258.471 737.304 258.471L737.304 258.471C729.872 258.471 722.932 257.04 716.484 254.178C710.036 251.367 704.376 247.501 699.503 242.581C694.68 237.661 690.89 231.888 688.134 225.261C685.378 218.685 684 211.706 684 204.327L684 204.327C684 196.746 685.378 189.667 688.134 183.091C690.89 176.514 694.68 170.741 699.503 165.77C704.376 160.85 710.036 156.985 716.484 154.173C722.932 151.362 729.872 149.956 737.304 149.956L737.304 149.956C744.686 149.956 751.602 151.362 758.049 154.173C764.497 156.985 770.157 160.85 775.03 165.77C779.853 170.741 783.643 176.514 786.399 183.091C789.156 189.667 790.534 196.746 790.534 204.327L790.534 204.327C790.534 208.694 790.066 212.811 789.131 216.677L789.131 216.677ZM737.304 174.656L737.304 174.656C729.478 174.656 722.612 177.543 716.705 183.316L716.705 183.316C714.146 185.927 712.177 188.814 710.799 191.977L710.799 191.977L763.734 191.977C762.356 188.814 760.387 185.927 757.828 183.316L757.828 183.316C752.217 177.543 745.375 174.656 737.304 174.656ZM825.898 160.65L825.898 160.65C829.638 157.487 833.896 154.876 838.67 152.818C843.444 150.76 848.858 149.73 854.912 149.73L854.912 149.73L854.912 174.43C846.84 174.43 839.974 177.317 834.314 183.091L834.314 183.091C828.703 189.115 825.898 196.118 825.898 204.101L825.898 204.101L825.898 255.76L801.682 255.76L801.682 204.101L801.682 152.667L825.898 152.667L825.898 160.65ZM924.532 111.701L924.532 111.701C934.228 111.701 943.383 113.584 951.996 117.349C960.61 121.115 968.116 126.26 974.514 132.787C980.913 139.313 985.957 146.969 989.649 155.755C993.34 164.49 995.186 173.803 995.186 183.693L995.186 183.693C995.186 193.583 993.34 202.921 989.649 211.706C985.957 220.492 980.913 228.148 974.514 234.674C968.116 241.201 960.61 246.347 951.996 250.112C943.383 253.877 934.228 255.76 924.532 255.76L924.532 255.76L899.504 255.76L909.397 231.06L924.532 231.06C930.734 231.06 936.665 229.855 942.325 227.445C947.985 225.035 953.03 221.647 957.46 217.279L957.46 217.279C961.742 212.761 965.064 207.64 967.427 201.917C969.789 196.244 970.97 190.169 970.97 183.693L970.97 183.693C970.97 177.418 969.789 171.393 967.427 165.62C965.064 159.846 961.742 154.701 957.46 150.182L957.46 150.182C953.03 145.764 947.985 142.351 942.325 139.941C936.665 137.581 930.734 136.401 924.532 136.401L924.532 136.401L890.276 136.401L890.276 196.043L890.276 231.06L890.276 255.76L866.06 255.76L866.06 111.701L924.532 111.701ZM1076.69 152.818L1100.91 152.818L1100.91 255.76L1076.69 255.76L1076.69 247.928C1073.05 251.091 1068.97 253.676 1064.44 255.684C1059.86 257.642 1054.74 258.621 1049.08 258.621L1049.08 258.621C1042.49 258.621 1036.51 257.366 1031.14 254.856C1025.73 252.296 1021.1 248.832 1017.26 244.464C1013.42 240.046 1010.47 234.9 1008.4 229.027C1006.33 223.103 1005.3 216.777 1005.3 210.05L1005.3 210.05L1005.3 152.818L1029.52 152.818L1029.52 210.05C1029.52 216.526 1031.85 222.149 1036.53 226.918L1036.53 226.918C1041.11 231.587 1046.62 233.921 1053.07 233.921L1053.07 233.921C1059.66 233.921 1065.25 231.587 1069.83 226.918L1069.83 226.918C1074.4 222.249 1076.69 216.626 1076.69 210.05L1076.69 210.05L1076.69 152.818ZM1169.35 149.956L1169.35 149.956C1176.73 149.956 1183.55 151.362 1189.8 154.173C1196.1 156.985 1201.51 160.85 1206.04 165.77C1210.62 170.741 1214.19 176.514 1216.74 183.091C1219.3 189.667 1220.58 196.746 1220.58 204.327L1220.58 204.327C1220.58 211.706 1219.3 218.685 1216.74 225.261C1214.19 231.888 1210.62 237.661 1206.04 242.581C1201.51 247.501 1196.1 251.367 1189.8 254.178C1183.55 257.04 1176.73 258.471 1169.35 258.471L1169.35 258.471C1161.13 258.471 1153.92 256.889 1147.72 253.727L1147.72 253.727L1156.43 231.662C1159.68 233.068 1163.32 233.771 1167.35 233.771L1167.35 233.771C1171.24 233.771 1174.93 233.043 1178.43 231.587C1181.92 230.131 1185.07 227.972 1187.88 225.111L1187.88 225.111C1193.54 219.337 1196.37 212.409 1196.37 204.327L1196.37 204.327C1196.37 196.093 1193.54 189.09 1187.88 183.316L1187.88 183.316C1181.97 177.543 1175.13 174.656 1167.35 174.656L1167.35 174.656C1159.28 174.656 1152.42 177.543 1146.76 183.316L1146.76 183.316C1141.1 189.09 1138.27 196.093 1138.27 204.327L1138.27 204.327L1138.27 247.552L1138.27 296.952L1114.05 296.952L1114.05 152.667L1138.27 152.667L1138.27 160.876C1142.15 157.713 1146.66 155.102 1151.78 153.044C1156.89 150.986 1162.75 149.956 1169.35 149.956ZM1333.84 216.677L1308.37 216.677L1255.5 216.677C1256.83 219.839 1258.78 222.651 1261.34 225.111L1261.34 225.111C1264.19 227.972 1267.37 230.131 1270.86 231.587C1274.36 233.043 1278.05 233.771 1281.94 233.771L1281.94 233.771C1287.45 233.771 1292.37 232.465 1296.7 229.855L1296.7 229.855L1321.88 240.096C1317.05 245.87 1311.22 250.363 1304.38 253.576C1297.49 256.839 1290.01 258.471 1281.94 258.471L1281.94 258.471C1274.55 258.471 1267.64 257.04 1261.19 254.178C1254.69 251.367 1249.03 247.501 1244.21 242.581C1239.39 237.661 1235.6 231.888 1232.84 225.261C1230.08 218.685 1228.71 211.706 1228.71 204.327L1228.71 204.327C1228.71 196.746 1230.08 189.667 1232.84 183.091C1235.6 176.514 1239.39 170.741 1244.21 165.77C1249.03 160.85 1254.69 156.985 1261.19 154.173C1267.64 151.362 1274.55 149.956 1281.94 149.956L1281.94 149.956C1289.37 149.956 1296.31 151.362 1302.75 154.173C1309.2 156.985 1314.84 160.85 1319.66 165.77C1324.53 170.741 1328.35 176.514 1331.1 183.091C1333.86 189.667 1335.24 196.746 1335.24 204.327L1335.24 204.327C1335.24 208.694 1334.77 212.811 1333.84 216.677L1333.84 216.677ZM1281.94 174.656L1281.94 174.656C1274.16 174.656 1267.29 177.543 1261.34 183.316L1261.34 183.316C1258.78 185.927 1256.83 188.814 1255.5 191.977L1255.5 191.977L1308.37 191.977C1307.04 188.814 1305.09 185.927 1302.53 183.316L1302.53 183.316C1296.87 177.543 1290.01 174.656 1281.94 174.656ZM1370.53 160.65L1370.53 160.65C1374.32 157.487 1378.6 154.876 1383.38 152.818C1388.15 150.76 1393.56 149.73 1399.62 149.73L1399.62 149.73L1399.62 174.43C1391.55 174.43 1384.68 177.317 1379.02 183.091L1379.02 183.091C1373.36 189.115 1370.53 196.118 1370.53 204.101L1370.53 204.101L1370.53 255.76L1346.31 255.76L1346.31 204.101L1346.31 152.667L1370.53 152.667L1370.53 160.65ZM1469.24 111.701L1469.24 111.701C1478.93 111.701 1488.09 113.584 1496.7 117.349C1505.32 121.115 1512.8 126.26 1519.15 132.787C1525.54 139.313 1530.59 146.969 1534.28 155.755C1538.02 164.49 1539.89 173.803 1539.89 183.693L1539.89 183.693C1539.89 193.583 1538.02 202.921 1534.28 211.706C1530.59 220.492 1525.54 228.148 1519.15 234.674C1512.8 241.201 1505.32 246.347 1496.7 250.112C1488.09 253.877 1478.93 255.76 1469.24 255.76L1469.24 255.76L1444.21 255.76L1454.1 231.06L1469.24 231.06C1475.44 231.06 1481.35 229.855 1486.96 227.445C1492.62 225.035 1497.66 221.647 1502.09 217.279L1502.09 217.279C1506.42 212.761 1509.77 207.64 1512.13 201.917C1514.49 196.244 1515.68 190.169 1515.68 183.693L1515.68 183.693C1515.68 177.418 1514.49 171.393 1512.13 165.62C1509.77 159.846 1506.42 154.701 1502.09 150.182L1502.09 150.182C1497.66 145.764 1492.62 142.351 1486.96 139.941C1481.35 137.581 1475.44 136.401 1469.24 136.401L1469.24 136.401L1434.91 136.401L1434.91 196.043L1434.91 231.06L1434.91 255.76L1410.69 255.76L1410.69 111.701L1469.24 111.701ZM1649.01 178.798L1649.01 178.798C1654.42 182.614 1658.73 187.534 1661.93 193.558C1665.18 199.633 1666.8 206.234 1666.8 213.363L1666.8 213.363L1666.8 213.74C1666.8 219.513 1665.72 224.985 1663.55 230.156C1661.44 235.277 1658.48 239.72 1654.69 243.485C1650.9 247.301 1646.52 250.288 1641.55 252.446C1636.58 254.655 1631.27 255.76 1625.61 255.76L1625.61 255.76L1585.44 255.76L1595.19 231.06L1625.61 231.06C1630.33 231.06 1634.34 229.378 1637.64 226.014C1640.94 222.651 1642.59 218.559 1642.59 213.74L1642.59 213.74L1642.59 213.363C1642.59 208.544 1640.94 204.452 1637.64 201.088C1634.34 197.725 1630.33 196.043 1625.61 196.043L1625.61 196.043L1615.71 196.043L1576.22 196.043L1576.22 231.06L1576.22 255.76L1552 255.76L1552 196.043L1552 171.343L1552 111.701L1615.71 111.701C1621.37 111.701 1626.74 112.781 1631.81 114.94C1636.83 117.149 1641.18 120.186 1644.88 124.051C1648.62 127.867 1651.54 132.31 1653.66 137.38C1655.83 142.451 1656.91 147.873 1656.91 153.646L1656.91 153.646L1656.91 154.098C1656.91 158.767 1656.2 163.185 1654.77 167.352C1653.39 171.519 1651.47 175.334 1649.01 178.798ZM1632.69 154.098L1632.69 153.646C1632.69 148.877 1631.04 144.811 1627.75 141.447C1624.45 138.083 1620.44 136.401 1615.71 136.401L1615.71 136.401L1576.22 136.401L1576.22 171.343L1615.71 171.343C1620.44 171.343 1624.45 169.661 1627.75 166.298C1631.04 162.934 1632.69 158.867 1632.69 154.098L1632.69 154.098Z" fill="#444444" fill-rule="evenodd" opacity="1" stroke="none" vectornator:layerName="path"/>
</g>
</g>
</svg>
