<?xml version="1.0" encoding="UTF-8" standalone="no"?>
<!DOCTYPE svg PUBLIC "-//W3C//DTD SVG 1.1//EN" "http://www.w3.org/Graphics/SVG/1.1/DTD/svg11.dtd">
<!-- Created with Vectornator (http://vectornator.io/) -->
<svg height="100%" stroke-miterlimit="10" style="fill-rule:nonzero;clip-rule:evenodd;stroke-linecap:round;stroke-linejoin:round;" version="1.1" viewBox="0 0 79.06 80.67" width="100%" xml:space="preserve" xmlns="http://www.w3.org/2000/svg" xmlns:vectornator="http://vectornator.io" xmlns:xlink="http://www.w3.org/1999/xlink">
<defs/>
<g id="Untitled" vectornator:layerName="Untitled">
<g opacity="1" vectornator:layerName="g">
<path d="M8.88178e-16 8.88178e-16L79.06 8.88178e-16L79.06 8.88178e-16L79.06 80.67L79.06 80.67L8.88178e-16 80.67L8.88178e-16 80.67L8.88178e-16 8.88178e-16L8.88178e-16 8.88178e-16Z" fill="#f15a24" fill-opacity="0" fill-rule="nonzero" opacity="1" stroke="none" vectornator:layerName="path"/>
<path d="M79.06 28.0963L79.06 0.0569986L33.4608 0.0569986C21.2565 0.0569986 11.2443 10.1187 11.0043 22.5114L10.9983 22.5114L10.9983 35.2111L16.4744 35.2111L16.4744 22.5114L16.4804 22.5114C16.7204 13.2007 24.2786 5.64286 33.4608 5.64286L73.5799 5.64286L73.5799 22.5114L39.673 22.5114C36.4169 22.5114 33.4178 24.2914 33.4178 28.0963L79.06 28.0963ZM8.88178e-16 52.5737L8.88178e-16 80.614L45.5952 80.614C57.7995 80.614 67.8107 70.5523 68.0507 58.1596L68.0577 58.1596L68.0577 45.4589L62.5816 45.4589L62.5816 58.1586L62.5716 58.1586C62.3366 67.4693 54.7764 75.0321 45.5952 75.0321L5.47614 75.0321L5.47614 58.1586L39.383 58.1586C42.6381 58.1586 45.6382 56.3786 45.6382 52.5737L8.88178e-16 52.5737ZM10.9523 63.7454L44.9741 63.7454C49.8233 63.7454 51.5643 60.7185 51.5643 56.0516L51.5643 33.8282L79.06 33.8282L79.06 58.6615C79.06 69.0623 72.1758 77.9001 62.8246 80.67C69.0727 75.5901 73.5839 67.8583 73.5839 58.6615L73.5839 39.414L57.0404 39.414L57.0404 56.0516C57.0404 63.5974 52.7833 69.4423 44.9741 69.4423L10.9523 69.4423L10.9523 63.7454ZM68.1037 16.9256L34.0809 16.9256C29.2317 16.9256 27.4907 19.9525 27.4907 24.6184L27.4907 46.8428L8.88178e-16 46.8428L8.88178e-16 22.0085C8.88178e-16 11.6087 6.88417 2.77093 16.2354 8.88178e-16C9.98725 5.07987 5.47614 12.8117 5.47614 22.0085L5.47614 41.256L22.0156 41.256L22.0156 24.6184C22.0156 17.0726 26.2727 11.2277 34.0809 11.2277L68.1037 11.2277L68.1037 16.9256Z" fill="#7628f8" fill-rule="evenodd" opacity="1" stroke="none" vectornator:layerName="path"/>
</g>
</g>
</svg>
